<?xml version="1.0" encoding="utf-8"?>
<!-- Generator: Adobe Illustrator 27.5.0, SVG Export Plug-In . SVG Version: 6.00 Build 0)  -->
<svg version="1.1" xmlns="http://www.w3.org/2000/svg" xmlns:xlink="http://www.w3.org/1999/xlink" x="0px" y="0px"
	 viewBox="0 0 750 500" style="enable-background:new 0 0 750 500;" xml:space="preserve">
<g id="BACKGROUND">
	<rect style="fill:#F2ECC9;" width="750" height="500"/>
	<rect style="fill:#F2ECC9;" width="750" height="500"/>
</g>
<g id="OBJECTS">
	<g>
		<defs>
			<rect id="SVGID_1_" width="750" height="500"/>
		</defs>
		<clipPath id="SVGID_00000159466057870807521700000008184055983645204660_">
			<use xlink:href="#SVGID_1_"  style="overflow:visible;"/>
		</clipPath>
		<g style="clip-path:url(#SVGID_00000159466057870807521700000008184055983645204660_);">
			<g>
				<g>
					<g>
						<path style="fill:#EDC15A;" d="M125.58,505.266c0,0,12.115-36.997,46.707-18.382c36.24,19.502,5.404,74.321-29.706,54.951
							C142.582,541.834,117.455,530.133,125.58,505.266z"/>
						<g>
							<path style="fill:#2E275F;" d="M152.047,496.945c7.47,4.242,2.827,14.239-0.623,12.867c-1.923-0.765,1.607-8.633-2.168-9.372
								c-3.775-0.739-4.818,4.853-7.843,3.3C138.388,502.188,144.713,492.781,152.047,496.945z"/>
							<path style="fill:#2E275F;" d="M174.385,508.09c7.47,4.242,2.827,14.239-0.623,12.867c-1.923-0.764,1.607-8.633-2.168-9.372
								c-3.775-0.739-4.818,4.853-7.843,3.3C160.726,513.333,167.051,503.925,174.385,508.09z"/>
						</g>
						<path style="fill:none;stroke:#2E275F;stroke-miterlimit:10;" d="M126.547,502.984c0,0,9.767-31.052,41.306-18.435"/>
						<path style="fill:none;stroke:#2E275F;stroke-miterlimit:10;" d="M142.582,541.834c0,0,19.228,12.719,35.967-5.331"/>
					</g>
				</g>
				<path style="fill:none;stroke:#2E275F;stroke-width:1.5;stroke-miterlimit:10;" d="M142.625,511.305
					c0,0-1.918,7.853,7.653,13.535c9.571,5.682,16.145-1.51,16.145-1.51"/>
				<path style="fill:none;stroke:#2E275F;stroke-miterlimit:10;" d="M141.241,511.556c0,0,1.129-1.077,2.58,0.027"/>
				<path style="fill:none;stroke:#2E275F;stroke-miterlimit:10;" d="M165.232,522.503c0,0,1.684,0.648,1.701,1.738"/>
				<path style="fill:#DB7FA0;" d="M169.006,524.142c-1.066,2.424,0.599,5.506,3.72,6.885c3.121,1.378,6.515,0.531,7.581-1.893
					c1.066-2.424-0.599-5.507-3.72-6.885C173.467,520.871,170.072,521.718,169.006,524.142z"/>
				<path style="fill:#DB7FA0;" d="M129.601,503.57c-1.247,2.336,0.181,5.536,3.188,7.147c3.007,1.611,6.456,1.022,7.703-1.314
					c1.247-2.336-0.181-5.536-3.188-7.147C134.296,500.646,130.848,501.234,129.601,503.57z"/>
			</g>
			<g>
				<g>
					<g>
						<path style="fill:#EDC15A;" d="M49.856,248.731c0,0,8.679-37.951,44.829-22.58c37.873,16.104,12.183,73.515-24.552,57.439
							C70.132,283.59,44.04,274.237,49.856,248.731z"/>
						<g>
							<path style="fill:#2E275F;" d="M75.45,238.023c7.827,3.54,4.118,13.92,0.557,12.87c-1.985-0.585,0.81-8.743-3.017-9.134
								c-3.827-0.391-4.353,5.274-7.508,4.004C62.328,244.494,67.766,234.548,75.45,238.023z"/>
							<path style="fill:#2E275F;" d="M98.714,247.077c7.827,3.54,4.118,13.921,0.557,12.87c-1.985-0.585,0.81-8.743-3.017-9.134
								c-3.827-0.39-4.353,5.273-7.508,4.004C85.592,253.548,91.03,243.601,98.714,247.077z"/>
						</g>
						<path style="fill:none;stroke:#2E275F;stroke-miterlimit:10;" d="M50.61,246.371c0,0,6.884-31.815,39.445-22.138"/>
						<path style="fill:none;stroke:#2E275F;stroke-miterlimit:10;" d="M70.132,283.59c0,0,20.311,10.906,35.328-8.601"/>
					</g>
				</g>
				<path style="fill:none;stroke:#2E275F;stroke-width:1.5;stroke-miterlimit:10;" d="M67.381,253.185c0,0-1.191,7.995,8.86,12.777
					c10.051,4.782,15.939-2.981,15.939-2.981"/>
				<path style="fill:none;stroke:#2E275F;stroke-miterlimit:10;" d="M66.026,253.561c0,0,1.026-1.176,2.571-0.209"/>
				<path style="fill:none;stroke:#2E275F;stroke-miterlimit:10;" d="M90.919,262.267c0,0,1.737,0.492,1.853,1.575"/>
				<path style="fill:#DB7FA0;" d="M94.827,263.555c-0.84,2.511,1.1,5.428,4.334,6.516c3.234,1.087,6.536-0.067,7.376-2.579
					c0.84-2.511-1.1-5.429-4.334-6.516C98.969,259.888,95.666,261.043,94.827,263.555z"/>
				<path style="fill:#DB7FA0;" d="M53.704,246.675c-1.027,2.441,0.687,5.496,3.829,6.825c3.142,1.329,6.523,0.427,7.55-2.013
					c1.028-2.441-0.686-5.496-3.829-6.825C58.112,243.333,54.732,244.234,53.704,246.675z"/>
			</g>
			<g>
				<g>
					<path style="fill:#EDC15A;" d="M-17.474,326.579c0,0-17.609-33.152,16.22-47.739c38.699-16.687,68.609,43.65,24.467,62.304
						C23.213,341.144-4.368,352.462-17.474,326.579z"/>
					<path style="fill:#2E275F;" d="M10.02,328.759c0.057,1.424,4.043-3.413,7.797-4.714c4.051-1.404,7.896,0.607,8.108-0.951
						c0.204-1.501-5.279-3.777-9.158-1.955C11.35,323.683,9.96,327.279,10.02,328.759z"/>
					<g>
						<path style="fill:#2E275F;" d="M-3.714,307.541c8.88-3.021,12.779,7.115,10.018,8.717c-1.955,1.134-5.202-8.197-9.223-5.027
							c-3.873,3.053,0.62,7.944-2.994,8.795C-8.378,320.607-12.432,310.507-3.714,307.541z"/>
						<path style="fill:#2E275F;" d="M21.79,297.268c7.642-2.879,12.618,7.643,9.812,8.839c-2.079,0.886-5.881-7.572-9.223-5.027
							c-3.341,2.546,0.748,7.479-2.792,8.6C16.955,310.514,13.171,300.515,21.79,297.268z"/>
					</g>
					<path style="fill:#2E275F;" d="M15.18,289.709c2.877,3.202,8.435,6.455,14.914,3.664c1.924-0.829,3.779-3.421-1.563-3.597
						c-5.11-0.169-7.918-0.236-12.63-2.595C14.67,286.564,14.26,288.685,15.18,289.709z"/>
					<path style="fill:#2E275F;" d="M-3.298,296.5c-0.682,4.06-3.502,9.536-10.163,10.603c-1.978,0.317-4.805-0.825-0.582-3.705
						c4.039-2.756,6.272-4.249,8.867-8.57C-4.498,293.699-3.08,295.201-3.298,296.5z"/>
				</g>
				<path style="fill:none;stroke:#2E275F;stroke-miterlimit:10;" d="M-16.358,330.258c0,0-16.843-32.023,7.49-47.709"/>
				<path style="fill:none;stroke:#2E275F;stroke-miterlimit:10;" d="M9.416,343.242c0,0,21.07,3.332,32.451-19.025"/>
			</g>
			<g>
				<path style="fill:#9AC89A;" d="M70.214,448.288c0,0-1.08-36.797,34.881-34.382c42.208,2.834,34.821,65.266-9.778,70.492
					C95.317,484.397,71.634,475.33,70.214,448.288z"/>
				<g>
					<g>
						<path style="fill:#2E275F;" d="M125.075,438.315c11.552,5.252,0.056,26.267-13.95,22.278S113.522,433.063,125.075,438.315z"/>
						<path style="fill:#FFFFFF;" d="M120.802,440.933c6.619,1.29,6.314,12.268-2.396,11.969S114.183,439.643,120.802,440.933z"/>
					</g>
					<g>
						<path style="fill:#2E275F;" d="M81.299,431.925c-12.572,1.731-7.562,25.155,7,25.336S93.871,430.194,81.299,431.925z"/>
						<path style="fill:#FFFFFF;" d="M84.765,434.834c-6.712-0.656-9.557,9.951-1.126,12.155
							C92.07,449.191,91.477,435.489,84.765,434.834z"/>
					</g>
				</g>
				<path style="fill:#2E275F;" d="M105.76,463.369c-0.092-1.273-2.48,0.145-6.038,0.068c-3.839-0.083-6.442-2.969-7.105-1.727
					c-0.639,1.197,3.245,4.602,7.082,4.495C104.437,466.073,105.835,464.391,105.76,463.369z"/>
			</g>
			<g>
				<path style="fill:#A691EA;" d="M143.198,329.348c0,0,14.912,2.109,21.555-7.333c0,0,0.753,17.395-11.401,19.626L143.198,329.348
					z"/>
				<path style="fill:#A691EA;" d="M122.358,323.472c0,0-13.817-5.991-14.549-17.513c0,0-9.729,14.439-0.531,22.691L122.358,323.472
					z"/>
				<path style="fill:#BCB8F4;" d="M131.357,320.768c31.338,7.265,25.197,40.884,16.708,48.703
					c-6.155,5.669-21.197,18.71-42.962,2.616C85.263,357.415,97.024,312.808,131.357,320.768z"/>
				<g>
					<path style="fill:#FFFFFF;" d="M111.164,355.468L111.164,355.468c-4.337-1.364-6.779-5.876-5.456-10.079l1.269-4.028
						c1.323-4.202,5.911-6.503,10.247-5.139l0,0c4.336,1.364,6.779,5.876,5.456,10.078l-1.269,4.028
						C120.089,354.531,115.501,356.832,111.164,355.468"/>
					<path style="fill:#2E275F;" d="M122.68,346.301c0.716-2.274,0.322-4.634-0.87-6.542c-0.551-0.412-1.167-0.74-1.845-0.953
						c-3.826-1.203-8.095,1.528-9.535,6.1c-1.44,4.573,0.494,9.256,4.321,10.46c0.347,0.109,0.699,0.175,1.051,0.221
						c2.59-0.674,4.767-2.576,5.611-5.258L122.68,346.301z"/>
				</g>
				<g>
					<path style="fill:#FFFFFF;" d="M137.177,362.876L137.177,362.876c4.414,1.088,8.846-1.498,9.899-5.776l1.01-4.101
						c1.054-4.277-1.671-8.628-6.084-9.716l0,0c-4.414-1.088-8.846,1.498-9.899,5.775l-1.01,4.101
						C130.039,357.438,132.763,361.787,137.177,362.876"/>
					<path style="fill:#2E275F;" d="M132.103,349.059c0.569-2.315,2.133-4.127,4.143-5.137c0.685-0.066,1.381-0.026,2.072,0.145
						c3.894,0.96,6.122,5.512,4.976,10.167c-1.147,4.655-5.233,7.651-9.128,6.691c-0.354-0.087-0.688-0.213-1.012-0.357
						c-1.863-1.921-2.734-4.678-2.061-7.408L132.103,349.059z"/>
				</g>
				<path style="fill:#2E275F;" d="M124.127,339.726c-1.061-3.707-4.261-8.507-10.573-8.801c-1.875-0.087-4.385,1.272-0.153,3.51
					c4.049,2.141,6.284,3.296,9.153,7.045C123.304,342.459,124.466,340.912,124.127,339.726z"/>
				<path style="fill:#2E275F;" d="M134.354,341.747c2.893-2.286,8.058-4.227,13.123-0.932c1.504,0.979,2.695,3.436-1.841,2.811
					c-4.339-0.598-6.719-0.948-11.04,0.36C133.467,344.328,133.428,342.478,134.354,341.747z"/>
				<path style="fill:#2E275F;" d="M136.65,365.644c0.156-2.718-6.145,0.966-13.645-0.179c-8.094-1.235-11.94-9.401-13.685-6.958
					c-1.681,2.354,5.591,10.625,13.732,11.459C133.104,370.996,136.524,367.826,136.65,365.644z"/>
				<path style="fill:none;stroke:#2E275F;stroke-miterlimit:10;" d="M107.724,324.929c0,0,8.629-8.083,23.633-4.161"/>
				<path style="fill:none;stroke:#2E275F;stroke-miterlimit:10;" d="M151.386,333.661c0,0,13.725,31.703-15.117,44.446"/>
			</g>
			<g>
				<g>
					<path style="fill:#E29B4D;" d="M226.071,531.287c0,0-10.121,1.314-14.631-9.657c-4.51-10.971,5.902-17.133,10.825-18.95
						c0,0-6.417-6.021-3.735-12.059c2.683-6.038,10.837-7.461,10.837-7.461s-5.997-5.528-0.221-12.332
						c5.776-6.804,14.697-7.584,16.493-9.372c1.796-1.788,2.186-3.626,2.186-3.626s7.281,14.774,6.079,18.355
						c0,0,13.557,2.312,14.515,14.61c0,0,7.978-1.529,12.491,8.247s-0.353,17.847-4.466,19.314
						C272.33,519.823,226.071,531.287,226.071,531.287z"/>
					<g>
						<g>
							<path style="fill:#FFFFFF;" d="M235.008,513.602L235.008,513.602c-4.443,0.961-8.799-1.751-9.729-6.058l-0.891-4.128
								c-0.93-4.306,1.918-8.576,6.361-9.537l0,0c4.443-0.961,8.799,1.751,9.729,6.057l0.891,4.128
								C242.299,508.371,239.451,512.641,235.008,513.602"/>
							<path style="fill:#2E275F;" d="M240.477,499.936c-0.503-2.33-2.014-4.186-3.994-5.254c-0.683-0.085-1.38-0.065-2.075,0.085
								c-3.92,0.848-6.278,5.334-5.266,10.02c1.013,4.686,5.011,7.798,8.931,6.95c0.356-0.077,0.694-0.193,1.022-0.328
								c1.917-1.867,2.867-4.597,2.274-7.346L240.477,499.936z"/>
						</g>
						<g>
							<path style="fill:#FFFFFF;" d="M261.277,507.164L261.277,507.164c4.374-1.239,6.945-5.68,5.743-9.918l-1.152-4.063
								c-1.202-4.238-5.722-6.67-10.095-5.431l0,0c-4.374,1.239-6.945,5.68-5.743,9.918l1.152,4.063
								C252.383,505.972,256.903,508.403,261.277,507.164"/>
							<path style="fill:#2E275F;" d="M250.03,497.67c-0.651-2.293-0.189-4.642,1.058-6.514c0.563-0.396,1.188-0.706,1.872-0.9
								c3.859-1.093,8.048,1.76,9.356,6.372c1.307,4.613-0.761,9.238-4.62,10.331c-0.35,0.099-0.703,0.155-1.057,0.191
								c-2.57-0.748-4.691-2.712-5.458-5.417L250.03,497.67z"/>
						</g>
					</g>
					<g>
						<path style="fill:#2E275F;" d="M240.888,513.905c0.91-1.385,4.963-0.526,7.908-1.222c3.145-0.744,4.479-3.653,6.935-2.571
							c4.155,1.829,1.957,8.21-5.234,10.307C243.985,522.317,238.03,518.253,240.888,513.905z"/>
					</g>
					<path style="fill:none;stroke:#2E275F;stroke-miterlimit:10;" d="M222.265,502.68c0,0-9.23-10.028-0.682-15.978
						c7.65-5.325,11.39-4.002,14.452-8.298"/>
					<path style="fill:none;stroke:#2E275F;stroke-miterlimit:10;" d="M241.915,487.854c0,0,16.809-7.114,10.173-19.619"/>
					<path style="fill:none;stroke:#2E275F;stroke-miterlimit:10;" d="M226.071,531.287c0,0,5.281-2.786,7.579-6.599"/>
				</g>
				<path style="fill:none;stroke:#2E275F;stroke-miterlimit:10;" d="M229.367,483.16c0,0-8.054-9.837,4.304-15.985
					c10.652-5.299,14.583-5.859,13.877-9.415"/>
			</g>
			<g>
				<g>
					<path style="fill:#E29B4D;" d="M315.108,73.633c0,0-8.224,3.357-14.459-4.871c-6.235-8.228,1.155-15.729,4.893-18.353
						c0,0-6.739-3.639-5.825-9.316c0.914-5.677,7.458-8.688,7.458-8.688s-6.275-3.318-2.929-10.328
						c3.346-7.01,10.68-9.651,11.793-11.555s1.033-3.538,1.033-3.538s9.413,10.811,9.198,14.092c0,0,11.921-1.071,15.464,9.065
						c0,0,6.373-3.062,12.344,4.161c5.971,7.222,3.673,15.096,0.538,17.245C351.481,53.697,315.108,73.633,315.108,73.633z"/>
					<g>
						<g>
							<path style="fill:#FFFFFF;" d="M318.693,56.765L318.693,56.765c-3.525,1.797-7.793,0.484-9.533-2.933l-1.668-3.275
								c-1.74-3.416-0.294-7.643,3.231-9.44l0,0c3.525-1.797,7.793-0.484,9.533,2.932l1.668,3.275
								C323.664,50.742,322.218,54.968,318.693,56.765"/>
							<path style="fill:#2E275F;" d="M320.255,44.05c-0.941-1.849-2.625-3.075-4.529-3.532c-0.594,0.08-1.176,0.252-1.727,0.533
								c-3.11,1.585-4.096,5.885-2.202,9.603c1.894,3.718,5.951,5.447,9.061,3.861c0.282-0.144,0.541-0.317,0.787-0.504
								c1.198-1.998,1.39-4.506,0.279-6.687L320.255,44.05z"/>
						</g>
						<g>
							<path style="fill:#FFFFFF;" d="M339.365,45.505L339.365,45.505c3.405-2.016,4.581-6.324,2.626-9.623l-1.873-3.162
								c-1.954-3.299-6.298-4.339-9.702-2.324l0,0c-3.404,2.016-4.58,6.324-2.626,9.623l1.874,3.163
								C331.616,46.48,335.96,47.52,339.365,45.505"/>
							<path style="fill:#2E275F;" d="M327.789,40.018c-1.058-1.785-1.191-3.864-0.559-5.717c0.385-0.458,0.842-0.858,1.375-1.173
								c3.004-1.778,7.163-0.309,9.289,3.28c2.126,3.59,1.415,7.942-1.589,9.721c-0.273,0.161-0.557,0.287-0.847,0.396
								c-2.328-0.058-4.55-1.238-5.797-3.344L327.789,40.018z"/>
						</g>
					</g>
					<g>
						<path style="fill:#2E275F;" d="M323.708,55.712c0.458-1.367,4.059-1.546,6.382-2.788c2.48-1.325,2.956-4.069,5.264-3.706
							c3.903,0.615,3.473,6.473-2.112,9.837C328.186,62.101,322.27,60.006,323.708,55.712z"/>
					</g>
					<path style="fill:none;stroke:#2E275F;stroke-miterlimit:10;" d="M305.542,50.41c0,0-9.997-6.384-4.128-13.293
						c5.252-6.182,8.693-5.901,10.314-10.197"/>
					<path style="fill:none;stroke:#2E275F;stroke-miterlimit:10;" d="M318.778,33.564c0,0,12.561-9.725,4.195-18.771"/>
					<path style="fill:none;stroke:#2E275F;stroke-miterlimit:10;" d="M315.108,73.633c0,0,3.824-3.519,4.909-7.238"/>
				</g>
				<path style="fill:none;stroke:#2E275F;stroke-miterlimit:10;" d="M307.175,32.406c0,0-8.965-6.486,0.066-14.407
					c7.784-6.828,10.967-8.174,9.582-11.009"/>
			</g>
			<g>
				<g>
					<path style="fill:#E29B4D;" d="M-23.229,174.063c0,0-7.734-3.629-5.977-13.4c1.756-9.772,11.878-9.433,16.169-8.499
						c0,0-1.818-7.137,2.793-10.19c4.611-3.053,11.005-0.387,11.005-0.387s-1.743-6.6,5.396-8.802
						c7.139-2.201,13.785,1.264,15.857,0.811c2.072-0.454,3.175-1.575,3.175-1.575s-1.512,13.703-3.973,15.689
						c0,0,8.526,7.734,3.666,16.844c0,0,6.319,2.512,5.102,11.442s-8.283,12.435-11.846,11.619S-23.229,174.063-23.229,174.063z"/>
					<g>
						<g>
							<path style="fill:#FFFFFF;" d="M-8.962,165.607L-8.962,165.607c-3.568-1.322-5.421-5.197-4.138-8.654l1.229-3.314
								c1.282-3.457,5.214-5.188,8.782-3.867l0,0c3.568,1.322,5.421,5.197,4.139,8.654l-1.23,3.314
								C-1.463,165.198-5.394,166.929-8.962,165.607"/>
							<path style="fill:#2E275F;" d="M1.048,158.426c0.694-1.871,0.464-3.861-0.453-5.505c-0.444-0.367-0.944-0.667-1.503-0.874
								c-3.148-1.166-6.831,0.938-8.227,4.7c-1.395,3.763,0.026,7.758,3.174,8.925c0.286,0.106,0.577,0.176,0.869,0.229
								c2.194-0.455,4.093-1.954,4.911-4.16L1.048,158.426z"/>
						</g>
						<g>
							<path style="fill:#FFFFFF;" d="M12.472,172.889L12.472,172.889c3.644,1.095,7.458-0.881,8.517-4.413l1.016-3.386
								c1.06-3.532-1.035-7.282-4.679-8.377l0,0c-3.644-1.094-7.457,0.882-8.517,4.413l-1.016,3.386
								C6.734,168.044,8.829,171.795,12.472,172.889"/>
							<path style="fill:#2E275F;" d="M8.81,161.127c0.573-1.911,1.956-3.361,3.679-4.121c0.575-0.026,1.156,0.036,1.726,0.208
								c3.215,0.966,4.887,4.864,3.734,8.708c-1.154,3.844-4.695,6.176-7.911,5.211c-0.292-0.088-0.566-0.207-0.831-0.341
								c-1.477-1.684-2.089-4.025-1.413-6.279L8.81,161.127z"/>
						</g>
					</g>
					<g>
						<path style="fill:#2E275F;" d="M-4.949,168.468c1.266-0.567,3.739,1.863,6.131,2.697c2.554,0.891,4.804-0.561,6.051,1.308
							c2.109,3.161-2.315,6.675-8.333,4.917C-6.55,175.798-8.924,170.249-4.949,168.468z"/>
					</g>
					<path style="fill:none;stroke:#2E275F;stroke-miterlimit:10;" d="M-13.038,152.164c0,0-1.999-11.231,6.712-11.582
						c7.795-0.314,9.839,2.303,13.934,0.65"/>
					<path style="fill:none;stroke:#2E275F;stroke-miterlimit:10;" d="M7.502,150.547c0,0,15.064,2.547,16.01-9.265"/>
					<path style="fill:none;stroke:#2E275F;stroke-miterlimit:10;" d="M-23.229,174.063c0,0,4.981,0.411,8.318-1.245"/>
				</g>
				<path style="fill:none;stroke:#2E275F;stroke-miterlimit:10;" d="M0.761,141.587c0,0-1.255-10.567,10.233-9.342
					c9.902,1.056,12.928,2.43,14.03-0.397"/>
			</g>
			<g>
				<g>
					<g>
						<path style="fill:#EDC15A;" d="M155.22,440.374c0,0-14.244-30.459,16.682-41.969c35.379-13.168,59.392,42.172,19.054,56.851
							C190.956,455.255,165.768,464.126,155.22,440.374z"/>
						<path style="fill:#2E275F;" d="M199.063,407.87c-2.824-2.625-8.043-5.083-13.599-2.073c-1.65,0.894-3.097,3.355,1.683,3.084
							c4.573-0.259,7.083-0.424,11.476,1.303C199.771,410.635,199.967,408.71,199.063,407.87z"/>
						<path style="fill:#2E275F;" d="M157.356,419.275c1.238-3.473,4.584-7.861,10.626-7.757c1.795,0.031,4.108,1.481-0.068,3.359
							c-3.995,1.797-6.198,2.764-9.164,6.167C157.975,421.933,156.96,420.386,157.356,419.275z"/>
					</g>
					<path style="fill:none;stroke:#2E275F;stroke-miterlimit:10;" d="M156.051,443.716c0,0-13.611-29.414,8.871-42.34"/>
					<path style="fill:none;stroke:#2E275F;stroke-miterlimit:10;" d="M178.518,456.504c0,0,18.698,3.939,29.896-15.543"/>
				</g>
				<path style="fill:#2E275F;" d="M183.491,432.054c10.242-3.043,23.333,15.936,6.623,20.848
					C176.559,456.886,172.686,435.265,183.491,432.054z"/>
				<g>
					<path style="fill:#2E275F;" d="M174.556,431.096l-9.755-5.196c-0.665-0.354-0.917-1.181-0.563-1.846l0,0
						c0.354-0.665,1.181-0.917,1.846-0.563l9.755,5.196c0.665,0.354,0.917,1.181,0.563,1.846l0,0
						C176.048,431.199,175.221,431.451,174.556,431.096z"/>
					<path style="fill:#2E275F;" d="M174.123,423.058l-5.196,9.755c-0.354,0.665-1.181,0.917-1.846,0.563l0,0
						c-0.665-0.354-0.917-1.181-0.563-1.846l5.196-9.755c0.354-0.665,1.181-0.917,1.846-0.563l0,0
						C174.225,421.566,174.477,422.392,174.123,423.058z"/>
				</g>
				<g>
					<path style="fill:#2E275F;" d="M195.464,424.325l-9.755-5.196c-0.665-0.354-0.917-1.181-0.563-1.846l0,0
						c0.354-0.665,1.181-0.917,1.846-0.563l9.755,5.196c0.665,0.354,0.917,1.181,0.563,1.846l0,0
						C196.956,424.427,196.13,424.679,195.464,424.325z"/>
					<path style="fill:#2E275F;" d="M195.031,416.286l-5.196,9.755c-0.354,0.665-1.181,0.917-1.846,0.563l0,0
						c-0.665-0.354-0.917-1.181-0.563-1.846l5.196-9.755c0.354-0.665,1.181-0.917,1.846-0.563l0,0
						C195.134,414.794,195.386,415.621,195.031,416.286z"/>
				</g>
			</g>
			<g>
				<g>
					<g>
						<path style="fill:#EDC15A;" d="M705.669,430.194c0,0-14.244-30.459,16.682-41.969c35.379-13.167,59.392,42.171,19.054,56.851
							C741.405,445.076,716.217,453.946,705.669,430.194z"/>
						<path style="fill:#2E275F;" d="M749.513,397.691c-2.824-2.625-8.043-5.083-13.599-2.073c-1.65,0.894-3.098,3.355,1.683,3.084
							c4.573-0.259,7.083-0.424,11.476,1.303C750.22,400.456,750.416,398.531,749.513,397.691z"/>
						<path style="fill:#2E275F;" d="M707.805,409.095c1.238-3.473,4.584-7.861,10.626-7.757c1.795,0.031,4.108,1.481-0.068,3.359
							c-3.995,1.797-6.198,2.764-9.164,6.167C708.424,411.754,707.409,410.206,707.805,409.095z"/>
					</g>
					<path style="fill:none;stroke:#2E275F;stroke-miterlimit:10;" d="M706.5,433.536c0,0-13.611-29.414,8.871-42.34"/>
					<path style="fill:none;stroke:#2E275F;stroke-miterlimit:10;" d="M728.967,446.324c0,0,18.698,3.94,29.896-15.543"/>
				</g>
				<path style="fill:#2E275F;" d="M733.94,421.875c10.242-3.043,23.333,15.936,6.623,20.848
					C727.008,446.707,723.135,425.085,733.94,421.875z"/>
				<g>
					<path style="fill:#2E275F;" d="M725.005,420.917l-9.755-5.196c-0.665-0.354-0.917-1.181-0.563-1.846l0,0
						c0.354-0.665,1.181-0.917,1.846-0.563l9.755,5.196c0.665,0.354,0.917,1.181,0.563,1.846l0,0
						C726.497,421.019,725.671,421.271,725.005,420.917z"/>
					<path style="fill:#2E275F;" d="M724.572,412.878l-5.196,9.755c-0.354,0.665-1.181,0.917-1.846,0.563l0,0
						c-0.665-0.354-0.917-1.181-0.563-1.846l5.196-9.755c0.354-0.665,1.181-0.917,1.846-0.563l0,0
						C724.674,411.386,724.926,412.213,724.572,412.878z"/>
				</g>
				<g>
					<path style="fill:#2E275F;" d="M745.914,414.146l-9.755-5.196c-0.665-0.354-0.917-1.181-0.563-1.846l0,0
						c0.354-0.665,1.181-0.917,1.846-0.563l9.755,5.196c0.665,0.354,0.917,1.181,0.563,1.846l0,0
						C747.406,414.248,746.579,414.5,745.914,414.146z"/>
					<path style="fill:#2E275F;" d="M745.481,406.107l-5.196,9.755c-0.354,0.665-1.181,0.917-1.846,0.563l0,0
						c-0.665-0.354-0.917-1.181-0.563-1.846l5.196-9.755c0.354-0.665,1.181-0.917,1.846-0.563l0,0
						C745.583,404.615,745.835,405.441,745.481,406.107z"/>
				</g>
			</g>
			<g>
				<g>
					<path style="fill:#EDC15A;" d="M139.339,70.231l-1.904,1.637c-6.25,5.373-15.672,4.662-21.046-1.588l-3.87-4.502
						c-5.373-6.25-4.662-15.673,1.588-21.046l1.904-1.637c6.25-5.373,15.672-4.662,21.046,1.588l3.87,4.502
						C146.3,55.435,145.589,64.858,139.339,70.231z"/>
					<path style="fill:#EDC15A;" d="M124.48,71.806l-10.632,11.679c-2.171,2.385-5.94,2.331-8.042-0.114l-7.817-9.093
						c-2.068-2.406-1.611-6.071,0.986-7.894l12.683-8.906L124.48,71.806z"/>
					<path style="fill:#EDC15A;" d="M136.205,43.856l-9.653,8.299c-1.878,1.615-4.709,1.401-6.324-0.477l-0.987-1.148
						c-1.615-1.878-1.401-4.709,0.477-6.324l9.653-8.299c1.878-1.615,4.71-1.401,6.324,0.477l0.987,1.148
						C138.297,39.41,138.083,42.242,136.205,43.856z"/>
					<path style="fill:#EDC15A;" d="M136.353,43.729l-8.505,7.312c-2.195,1.887-2.669,4.936-1.059,6.809
						c1.61,1.873,4.695,1.862,6.891-0.025l8.505-7.312c2.195-1.887,2.669-4.936,1.059-6.809
						C141.633,41.831,138.548,41.842,136.353,43.729z"/>
					<path style="fill:#EDC15A;" d="M140.454,52.503l-7,6.018c-1.807,1.553-2.105,4.169-0.665,5.843
						c1.439,1.674,4.07,1.772,5.877,0.219l7-6.018c1.807-1.553,2.105-4.169,0.666-5.843S142.26,50.95,140.454,52.503z"/>
					<path style="fill:#EDC15A;" d="M144.215,58.557l-6.5,5.588c-1.678,1.442-1.954,3.872-0.618,5.426
						c1.336,1.554,3.78,1.645,5.457,0.203l6.5-5.588c1.678-1.442,1.954-3.872,0.618-5.426S145.892,57.115,144.215,58.557z"/>
					<path style="fill:#EDC15A;" d="M108.811,60.88c0,0-6.868-9.156-2.439-15.976c0,0-11.145-9.232-9.225-11.899
						c3.317-4.609,7.179-3.913,11.043-1.461c2.862,1.815,12.426,12.41,12.426,12.41s-5.424,18.217-8.601,19.192
						C108.837,64.121,108.811,60.88,108.811,60.88z"/>
				</g>
				<path style="fill:none;stroke:#2E275F;stroke-miterlimit:10;" d="M118.459,72.686c0,0,8.306,8.579,16.571,1.25"/>
				<path style="fill:none;stroke:#2E275F;stroke-linejoin:round;stroke-miterlimit:10;" d="M125.052,39.654
					c0,0-7.13,4.761-6.46,8.565c0.67,3.804,4.201,6.725,8.534,3.443c0,0-3.464,3.583,0.036,6.845
					c2.75,2.563,6.291,0.015,6.291,0.015s-3.201,3.898-1.07,5.898c2.13,2.001,4.257,1.131,4.257,1.131s-1.031,2.94,1.132,4.501
					c2.164,1.562,6.516-1.495,7.729-2.949"/>
				<path style="fill:none;stroke:#2E275F;stroke-linejoin:round;stroke-miterlimit:10;" d="M129.006,49.667
					c0,0,5.495-6.503,10.695-7.141"/>
				<path style="fill:none;stroke:#2E275F;stroke-linejoin:round;stroke-miterlimit:10;" d="M135.883,56.073
					c0,0,4.865-5.962,8.932-4.257"/>
				<path style="fill:none;stroke:#2E275F;stroke-linejoin:round;stroke-miterlimit:10;" d="M139.707,61.955
					c0,0,4.866-5.962,8.324-4.008"/>
			</g>
			<g>
				<g>
					<g>
						<path style="fill:#EDC15A;" d="M7.171,397.935l4.306,11.6c2.534,6.826,10.121,10.305,16.947,7.771l15.445-5.734
							c6.826-2.534,10.305-10.121,7.771-16.947l-4.306-11.6c-2.534-6.826-10.121-10.305-16.947-7.771l-15.445,5.734
							C8.116,383.522,4.637,391.11,7.171,397.935z"/>
						<path style="fill:#EDC15A;" d="M32.033,356.814c-1.179-3.257-4.48-5.002-7.373-3.898c-2.893,1.104-4.283,4.639-3.104,7.896
							l7.332,20.107c1.179,3.257,4.48,5.002,7.373,3.898c2.893-1.104,4.283-4.64,3.104-7.896L32.033,356.814z"/>
						<path style="fill:#EDC15A;" d="M27.286,376.293l4.673,12.588c1.206,3.249-0.064,6.717-2.836,7.746
							c-2.773,1.029-5.998-0.77-7.204-4.019l-4.673-12.588c-1.206-3.249,0.064-6.717,2.836-7.747
							C22.854,371.245,26.08,373.044,27.286,376.293z"/>
						<path style="fill:#EDC15A;" d="M17.906,383.109l3.847,10.361c0.993,2.674-0.211,5.588-2.689,6.507
							c-2.478,0.92-5.291-0.502-6.284-3.176L8.933,386.44c-0.993-2.674,0.211-5.588,2.689-6.507
							C14.1,379.012,16.913,380.435,17.906,383.109z"/>
						<path style="fill:#EDC15A;" d="M1.593,378.168l10.15,10.65c2.62,2.749,3.303,6.35,1.526,8.043
							c-1.776,1.693-5.34,0.837-7.96-1.912l-10.15-10.65c-2.62-2.749-3.303-6.35-1.527-8.043
							C-4.591,374.563-1.027,375.419,1.593,378.168z"/>
					</g>
					<path style="fill:none;stroke:#2E275F;stroke-miterlimit:10;" d="M29.253,416.998c0,0-13.673,4.174-18.084-8.292"/>
					<path style="fill:none;stroke:#2E275F;stroke-linejoin:round;stroke-miterlimit:10;" d="M32.356,389.95
						c0,0,1.553,5.761-4.004,7.15c-4.366,1.091-6.6-3.63-6.6-3.63s1.095,5.938-2.296,6.799c-3.391,0.861-5.115-1.282-5.115-1.282"/>
					<path style="fill:none;stroke:#2E275F;stroke-linejoin:round;stroke-miterlimit:10;" d="M31.542,386.77
						c0,0-1.988-9.997-7.066-13.679"/>
					<path style="fill:none;stroke:#2E275F;stroke-linejoin:round;stroke-miterlimit:10;" d="M20.626,389.497
						c0,0-1.642-9.065-6.89-9.635"/>
					<path style="fill:none;stroke:#2E275F;stroke-linejoin:round;stroke-miterlimit:10;" d="M13.211,393.443
						c0,0-1.642-9.065-6.398-9.023"/>
				</g>
				<path style="fill:#EDC15A;" d="M40.589,391.879c0,0,3.91-6.512,12.605-7.078c0,0,10.284-13.617,12.819-3.354
					c0,0,3.336,2.759-9.301,14.284c0,0-0.154,14.355-18.834,18.063"/>
			</g>
			<g>
				<g>
					<path style="fill:#E29B4D;" d="M583.899,449.079c0,0,16.315-8.736,17.648-6.247c1.333,2.489-4.526,18.791-5.722,21.21"/>
					<path style="fill:#E29B4D;" d="M571.64,447.433c0,0-13.153-13.019-15.139-11.012c-1.986,2.006-1.01,19.302-0.552,21.961"/>
					<g>
						<g>
							<g>
								<g>
									<path style="fill:#EDC15A;" d="M551.442,468.705c0,0,0.044-28.215,28.06-23.153c29.351,5.304,20.408,50.003-8.135,44.536
										C571.367,490.088,551.425,487.665,551.442,468.705z"/>
									<path style="fill:#2E275F;" d="M562.978,471.201c2.077-1.339,7.086,2.278,11.524,3.106
										c4.738,0.883,8.313-2.279,11.011,0.679c4.563,5.003-2.286,12.379-13.36,10.898
										C562.126,484.543,556.456,475.406,562.978,471.201z"/>
									<path style="fill:#FFFFFF;" d="M584.351,474.097c-2.54-1.269-5.761,0.972-9.849,0.21
										c-3.992-0.744-8.438-3.734-10.805-3.356c0.159,0.914,0.442,1.924,1.208,2.965c0.03,1.324,0.168,3.041,0.678,3.115
										c0.357,0.052,0.846-0.542,1.289-1.236c2.823,1.971,8.508,3.486,12.713,2.421c0.224,0.758,0.515,1.421,0.86,1.471
										c0.46,0.067,1.01-1.234,1.411-2.415C582.992,476.563,583.878,475.532,584.351,474.097z"/>
									<g>
										<path style="fill:#2E275F;" d="M566.951,460.445c5.974,1.746,4.659,8.018,2.017,7.539
											c-1.473-0.267-0.605-4.948-3.346-5.047c-2.741-0.099-2.35,3.106-4.736,2.491
											C558.499,464.813,561.086,458.731,566.951,460.445z"/>
										<path style="fill:#2E275F;" d="M584.477,463.271c6.222,0.159,6.898,6.794,4.221,7.023
											c-1.492,0.127-1.862-4.867-4.535-4.226c-2.673,0.641-1.469,3.794-3.933,3.815
											C577.766,469.903,578.368,463.116,584.477,463.271z"/>
									</g>
									<path style="fill:none;stroke:#2E275F;stroke-miterlimit:10;" d="M551.597,466.916c0,0-0.24-23.591,24.326-21.977"/>
									<path style="fill:none;stroke:#2E275F;stroke-miterlimit:10;" d="M571.367,490.088c0,0,16.105,4.448,23.588-11.748"/>
								</g>
							</g>
						</g>
					</g>
					<path style="fill:#2E275F;" d="M570.971,454.332c-2.323-1.663-6.391-2.977-10.191-0.24c-1.128,0.813-1.96,2.758,1.528,2.108
						c3.336-0.622,5.166-0.98,8.557-0.125C571.752,456.297,571.714,454.864,570.971,454.332z"/>
					<path style="fill:#2E275F;" d="M583.777,455.297c2.66-0.624,6.736-0.302,9.098,3.502c0.702,1.13,0.728,3.153-2.119,1.307
						c-2.723-1.766-4.21-2.749-7.521-3.23C582.37,456.75,582.926,455.496,583.777,455.297z"/>
					<g>
						<path style="fill:none;stroke:#2E275F;stroke-miterlimit:10;" d="M591.991,471.496c0,0,6.592-1.284,13.11,0.144"/>
						<path style="fill:none;stroke:#2E275F;stroke-miterlimit:10;" d="M591.302,474.031c0,0,6.713,0.185,12.763,3.001"/>
						<path style="fill:none;stroke:#2E275F;stroke-miterlimit:10;" d="M590.993,476.557c0,0,6.461,1.834,11.631,6.053"/>
					</g>
					<g>
						<path style="fill:none;stroke:#2E275F;stroke-miterlimit:10;" d="M558.848,466.679c0,0-5.954-3.107-12.609-3.594"/>
						<path style="fill:none;stroke:#2E275F;stroke-miterlimit:10;" d="M558.786,469.305c0,0-6.488-1.733-13.089-0.757"/>
						<path style="fill:none;stroke:#2E275F;stroke-miterlimit:10;" d="M558.363,471.815c0,0-6.716-0.081-12.872,2.492"/>
					</g>
					<path style="fill:#2E275F;" d="M572.997,468.497c0.661-0.71,4.297-0.12,4.608,0.732c0.31,0.851-1.681,2.175-2.618,2.225
						C574.049,471.504,572.485,469.047,572.997,468.497z"/>
					<path style="fill:none;stroke:#2E275F;stroke-miterlimit:10;" d="M589.698,450.257c0,0,7.074,4.768,8.156,15.137"/>
				</g>
				<g>
					<path style="fill:#80C5DB;" d="M599.936,484.268c10.223-6.599-9.166-16.336-10.507-14.96
						C588.087,470.684,592.746,488.909,599.936,484.268z"/>
					<path style="fill:#FFFFFF;" d="M592.021,471.046c-0.842-0.365-1.734,0.416-1.502,1.304c0.936,3.578,3.338,10.67,7.188,8.059
						C601.858,477.594,596.045,472.791,592.021,471.046z"/>
					<path style="fill:none;stroke:#2E275F;stroke-miterlimit:10;" d="M589.428,469.308c0,0-0.193,9.996,4.739,13.841"/>
					<path style="fill:none;stroke:#2E275F;stroke-miterlimit:10;" d="M599.936,484.268c0,0,7.683-4.427-2.278-11.536"/>
				</g>
				<g>
					<path style="fill:#80C5DB;" d="M547.189,476.355c-7.922-9.236,13.437-13.051,14.331-11.35
						C562.415,466.706,552.76,482.851,547.189,476.355z"/>
					<path style="fill:#FFFFFF;" d="M558.54,465.933c0.911-0.11,1.544,0.892,1.069,1.678c-1.915,3.164-6.237,9.279-9.185,5.68
						C547.246,469.41,554.186,466.46,558.54,465.933z"/>
					<path style="fill:none;stroke:#2E275F;stroke-miterlimit:10;" d="M561.52,465.005c0,0-2.66,9.638-8.483,11.919"/>
					<path style="fill:none;stroke:#2E275F;stroke-miterlimit:10;" d="M547.189,476.355c0,0-6.105-6.431,5.468-10.41"/>
				</g>
			</g>
			<g>
				<g>
					<path style="fill:#E29B4D;" d="M23.572,443.891c0,0,15.058-19.926,18.097-17.629c3.04,2.297,5.071,25.587,4.973,29.227"/>
					<path style="fill:#E29B4D;" d="M7.618,448.801c0,0-23.477-8.522-24.777-4.941c-1.3,3.581,9.67,24.226,11.733,27.227"/>
					<g>
						<g>
							<g>
								<g>
									<path style="fill:#EDC15A;" d="M-5.115,486.284c0,0-15.891-34.603,21.305-44.231
										c38.968-10.086,53.267,49.748,15.197,59.178C31.387,501.231,5.579,509.53-5.115,486.284z"/>
									<path style="fill:#2E275F;" d="M10.433,482.824c1.789-2.815,9.972-1.212,15.878-2.706c6.305-1.595,8.9-7.49,13.878-5.39
										c8.42,3.553,4.194,16.463-10.214,20.906C16.928,499.657,4.816,491.663,10.433,482.824z"/>
									<path style="fill:#FFFFFF;" d="M26.312,480.118c-5.313,1.344-12.451,0.193-15.138,1.993
										c1.098,1.589,2.662,3.302,6.245,4.073c6.813,1.465,21.932-2.317,20.844-11.889
										C34.433,474.175,31.753,478.742,26.312,480.118z"/>
									<path style="fill:none;stroke:#2E275F;stroke-miterlimit:10;" d="M-5.937,484.004c0,0-13.625-28.776,17.394-40.68"/>
									<path style="fill:none;stroke:#2E275F;stroke-miterlimit:10;" d="M31.387,501.231c0,0,22.251-3.649,22.27-27.727"/>
								</g>
							</g>
						</g>
					</g>
					<g>
						<path style="fill:none;stroke:#2E275F;stroke-miterlimit:10;" d="M46.156,466.791c0,0,7.354-5.299,16.149-7.232"/>
						<path style="fill:none;stroke:#2E275F;stroke-miterlimit:10;" d="M46.745,470.286c0,0,8.332-3.567,17.338-3.535"/>
						<path style="fill:none;stroke:#2E275F;stroke-miterlimit:10;" d="M47.793,473.557c0,0,8.954-1.404,17.674,0.846"/>
					</g>
					<g>
						<path style="fill:none;stroke:#2E275F;stroke-miterlimit:10;" d="M2.816,479.617c0,0-9.053-0.444-17.484,2.721"/>
						<path style="fill:none;stroke:#2E275F;stroke-miterlimit:10;" d="M4.224,482.87c0,0-8.931,1.542-16.469,6.47"/>
						<path style="fill:none;stroke:#2E275F;stroke-miterlimit:10;" d="M5.125,486.184c0,0-8.276,3.695-14.368,10.328"/>
					</g>
					<path style="fill:#2E275F;" d="M21.184,473.849c0.409-1.244,5.199-2.575,6.06-1.707c0.862,0.868-0.831,3.615-1.952,4.206
						C24.171,476.939,20.867,474.812,21.184,473.849z"/>
					<path style="fill:none;stroke:#2E275F;stroke-miterlimit:10;" d="M31.344,442.058c0,0,11.363,1.845,18.549,13.942"/>
				</g>
				<g>
					<path style="fill:#DB7FA0;" d="M12.585,477.721c0,0-14.376-0.292-14.807-7.657c-0.497-8.492,6.664-8.031,9.33-5.478
						c0,0-1.338-6.383,5.133-5.53C20.605,460.159,17.786,473.201,12.585,477.721z"/>
					<path style="fill:none;stroke:#FFFFFF;stroke-miterlimit:10;" d="M10.418,459.697c0,0,1.276-0.731,3.071,0.573"/>
					<path style="fill:none;stroke:#FFFFFF;stroke-miterlimit:10;" d="M0.687,464.402c0.297-0.178,0.632-0.338,1.007-0.475"/>
					<path style="fill:none;stroke:#FFFFFF;stroke-miterlimit:10;" d="M-0.789,472.221c0,0-1.956-4.513,0.542-7.085"/>
				</g>
				<g>
					<path style="fill:#DB7FA0;" d="M36.17,470.742c0,0,11.902-8.069,8.256-14.482c-4.204-7.395-9.961-3.111-10.809,0.482
						c0,0-2.351-6.083-7.316-1.846C19.884,460.372,29.347,469.779,36.17,470.742z"/>
					<path style="fill:none;stroke:#FFFFFF;stroke-miterlimit:10;" d="M28.18,454.44c0,0-1.468,0.081-2.264,2.152"/>
					<path style="fill:none;stroke:#FFFFFF;stroke-miterlimit:10;" d="M38.903,453.092c-0.346,0.012-0.714,0.06-1.103,0.15"/>
					<path style="fill:none;stroke:#FFFFFF;stroke-miterlimit:10;" d="M44.397,458.849c0,0-0.815-4.85-4.311-5.649"/>
				</g>
			</g>
			<g>
				<g>
					<path style="fill:#E29B4D;" d="M510.022-14.134c0,0,24.811-2.866,25.248,0.919c0.437,3.785-15.007,21.335-17.708,23.778"/>
					<path style="fill:#E29B4D;" d="M495.454-22.284c0,0-10.046-22.866-13.534-21.334c-3.488,1.532-10.847,23.722-11.593,27.287"/>
					<g>
						<g>
							<g>
								<g>
									<path style="fill:#EDC15A;" d="M459.549-5.613c0,0,14.059-35.388,46.706-15.129c34.203,21.224,0.794,72.881-32.314,51.853
										C473.941,31.111,450.117,18.173,459.549-5.613z"/>
									<path style="fill:#2E275F;" d="M472.787,3.245c3.271-0.649,7.762,6.376,12.921,9.617c5.507,3.46,11.563,1.266,13.481,6.318
										c3.244,8.544-9.013,14.401-22.175,7.046C465.095,19.565,462.514,5.284,472.787,3.245z"/>
									<path style="fill:#FFFFFF;" d="M485.708,12.862c-4.64-2.915-8.736-8.874-11.894-9.574c-0.392,1.891-0.551,4.206,1.366,7.33
										c3.645,5.94,16.819,14.265,22.993,6.869C495.614,14.634,490.46,15.848,485.708,12.862z"/>
									<path style="fill:none;stroke:#2E275F;stroke-miterlimit:10;" d="M460.63-7.782c0,0,11.408-29.725,41.436-15.506"/>
									<path style="fill:none;stroke:#2E275F;stroke-miterlimit:10;" d="M473.941,31.111c0,0,18.004,13.576,35.433-3.036"/>
								</g>
							</g>
						</g>
					</g>
					<g>
						<path style="fill:none;stroke:#2E275F;stroke-miterlimit:10;" d="M509.05,18.015c0,0,8.91,1.661,16.382,6.688"/>
						<path style="fill:none;stroke:#2E275F;stroke-miterlimit:10;" d="M506.928,20.854c0,0,8.333,3.565,14.528,10.101"/>
						<path style="fill:none;stroke:#2E275F;stroke-miterlimit:10;" d="M505.287,23.871c0,0,7.198,5.508,11.592,13.369"/>
					</g>
					<g>
						<path style="fill:none;stroke:#2E275F;stroke-miterlimit:10;" d="M469.847-4.48c0,0-5.93-6.855-14.04-10.769"/>
						<path style="fill:none;stroke:#2E275F;stroke-miterlimit:10;" d="M468.467-1.215c0,0-7.283-5.396-16.052-7.446"/>
						<path style="fill:none;stroke:#2E275F;stroke-miterlimit:10;" d="M466.691,1.724c0,0-8.387-3.435-17.391-3.262"/>
					</g>
					<path style="fill:#2E275F;" d="M486.702,4.824c1.183-0.563,5.452,1.983,5.419,3.205c-0.033,1.223-3.189,1.895-4.39,1.492
						C486.53,9.119,485.786,5.26,486.702,4.824z"/>
					<path style="fill:none;stroke:#2E275F;stroke-miterlimit:10;" d="M516.714-9.777c0,0,6.511,9.494,2.723,23.044"/>
				</g>
				<g>
					<path style="fill:#DB7FA0;" d="M477.964,1.278c0,0-9.715-10.601-4.686-15.998c5.799-6.223,10.411-0.725,10.405,2.967
						c0,0,3.693-5.375,7.544-0.105C496.206-5.047,484.825,1.918,477.964,1.278z"/>
					<path style="fill:none;stroke:#FFFFFF;stroke-miterlimit:10;" d="M489.505-12.735c0,0,1.41,0.418,1.706,2.617"/>
					<path style="fill:none;stroke:#FFFFFF;stroke-miterlimit:10;" d="M479.384-16.526c0.334,0.092,0.681,0.224,1.039,0.401"/>
					<path style="fill:none;stroke:#FFFFFF;stroke-miterlimit:10;" d="M472.708-12.194c0,0,1.914-4.531,5.5-4.5"/>
				</g>
				<g>
					<path style="fill:#DB7FA0;" d="M499.297,13.519c0,0,14.055,3.038,16.176-4.027c2.446-8.147-4.627-9.354-7.812-7.486
						c0,0,2.777-5.901-3.716-6.567C495.553-5.422,495.282,7.919,499.297,13.519z"/>
					<path style="fill:none;stroke:#FFFFFF;stroke-miterlimit:10;" d="M505.572-3.516c0,0-1.073-1.006-3.12-0.152"/>
					<path style="fill:none;stroke:#FFFFFF;stroke-miterlimit:10;" d="M513.952,3.31c-0.248-0.242-0.537-0.475-0.87-0.694"/>
					<path style="fill:none;stroke:#FFFFFF;stroke-miterlimit:10;" d="M513.581,11.259c0,0,2.946-3.938,1.11-7.019"/>
				</g>
			</g>
			<g>
				<g>
					<path style="fill:#E29B4D;" d="M28.321,62.623c0,0,24.659-3.965,25.264-0.204C54.19,66.181,39.541,84.4,36.951,86.961"/>
					<path style="fill:#E29B4D;" d="M13.406,55.128c0,0-11.052-22.397-14.468-20.711c-3.417,1.686-9.782,24.181-10.369,27.775"/>
					<g>
						<g>
							<g>
								<g>
									<path style="fill:#EDC15A;" d="M-21.723,73.378c0,0,12.472-35.977,45.987-17.189c35.112,19.683,4.031,72.774-29.978,53.238
										C-5.714,109.427-30.089,97.56-21.723,73.378z"/>
									<path style="fill:#2E275F;" d="M-8.104,81.639c3.239-0.794,8.038,6.025,13.336,9.034
										c5.655,3.212,11.608,0.751,13.748,5.712c3.62,8.391-8.364,14.787-21.84,8.024C-15.063,98.285-18.276,84.133-8.104,81.639z"
										/>
									<path style="fill:#FFFFFF;" d="M5.231,90.673c-4.765-2.706-9.122-8.477-12.308-9.036c-0.307,1.907-0.364,4.226,1.69,7.262
										c3.905,5.772,17.436,13.503,23.275,5.84C15.206,92.002,10.111,93.444,5.231,90.673z"/>
									<path style="fill:none;stroke:#2E275F;stroke-miterlimit:10;" d="M-20.739,71.164c0,0,10.076-30.202,40.706-17.332"/>
									<path style="fill:none;stroke:#2E275F;stroke-miterlimit:10;" d="M-5.714,109.427c0,0,18.589,12.763,35.264-4.607"/>
								</g>
							</g>
						</g>
					</g>
					<g>
						<path style="fill:none;stroke:#2E275F;stroke-miterlimit:10;" d="M28.779,94.783c0,0,8.975,1.263,16.663,5.953"/>
						<path style="fill:none;stroke:#2E275F;stroke-miterlimit:10;" d="M26.786,97.714c0,0,8.483,3.191,14.963,9.445"/>
						<path style="fill:none;stroke:#2E275F;stroke-miterlimit:10;" d="M25.28,100.801c0,0,7.436,5.183,12.174,12.84"/>
					</g>
					<g>
						<path style="fill:none;stroke:#2E275F;stroke-miterlimit:10;" d="M-11.384,74.053c0,0-6.229-6.584-14.505-10.134"/>
						<path style="fill:none;stroke:#2E275F;stroke-miterlimit:10;" d="M-12.618,77.376c0,0-7.515-5.067-16.366-6.725"/>
						<path style="fill:none;stroke:#2E275F;stroke-miterlimit:10;" d="M-14.262,80.391c0,0-8.532-3.059-17.519-2.486"/>
					</g>
					<path style="fill:#2E275F;" d="M5.867,82.599c1.156-0.615,5.535,1.738,5.556,2.961c0.021,1.223-3.101,2.035-4.319,1.686
						C5.886,86.897,4.972,83.075,5.867,82.599z"/>
					<path style="fill:none;stroke:#2E275F;stroke-miterlimit:10;" d="M35.201,66.678c0,0,6.927,9.195,3.744,22.9"/>
				</g>
				<g>
					<path style="fill:#DB7FA0;" d="M-3.019,79.444c0,0-10.176-10.159-5.392-15.774c5.517-6.474,10.368-1.187,10.526,2.502
						c0,0,3.451-5.534,7.532-0.44C14.923,72.315,3.863,79.779-3.019,79.444z"/>
					<path style="fill:none;stroke:#FFFFFF;stroke-miterlimit:10;" d="M7.888,64.932c0,0,1.427,0.355,1.82,2.539"/>
					<path style="fill:none;stroke:#FFFFFF;stroke-miterlimit:10;" d="M-2.393,61.595c0.338,0.077,0.69,0.193,1.055,0.354"/>
					<path style="fill:none;stroke:#FFFFFF;stroke-miterlimit:10;" d="M-8.869,66.219c0,0,1.711-4.611,5.294-4.74"/>
				</g>
				<g>
					<path style="fill:#DB7FA0;" d="M18.836,90.725c0,0,14.176,2.41,15.981-4.742c2.082-8.248-5.038-9.139-8.137-7.131
						c0,0,2.512-6.018-4.004-6.395C14.255,71.97,14.577,85.309,18.836,90.725z"/>
					<path style="fill:none;stroke:#FFFFFF;stroke-miterlimit:10;" d="M24.348,73.428c0,0-1.116-0.957-3.124-0.013"/>
					<path style="fill:none;stroke:#FFFFFF;stroke-miterlimit:10;" d="M33.023,79.875c-0.259-0.231-0.557-0.451-0.9-0.655"/>
					<path style="fill:none;stroke:#FFFFFF;stroke-miterlimit:10;" d="M33.006,87.832c0,0,2.768-4.065,0.797-7.061"/>
				</g>
			</g>
			<g>
				<path style="fill:#EDC15A;" d="M313.842,496.978c0,0-10.818-29.293,20.201-34.827c32.497-5.798,40.428,44.026,8.706,49.343
					C342.749,511.494,321.124,516.657,313.842,496.978z"/>
				<g>
					<path style="fill:#FFFFFF;" d="M328.805,491.487L328.805,491.487c-3.321,0.534-6.432-1.642-6.949-4.861l-0.495-3.085
						c-0.517-3.219,1.757-6.261,5.078-6.795l0,0c3.321-0.534,6.432,1.642,6.949,4.861l0.495,3.086
						C334.4,487.911,332.126,490.953,328.805,491.487"/>
					<path style="fill:#2E275F;" d="M333.387,481.606c-0.279-1.742-1.322-3.173-2.743-4.04c-0.501-0.09-1.017-0.103-1.537-0.019
						c-2.93,0.471-4.85,3.693-4.288,7.196c0.563,3.503,3.394,5.961,6.324,5.489c0.266-0.043,0.52-0.115,0.768-0.202
						c1.491-1.304,2.301-3.284,1.971-5.338L333.387,481.606z"/>
				</g>
				<g>
					<path style="fill:#FFFFFF;" d="M348.471,487.771L348.471,487.771c3.281-0.742,5.357-3.922,4.636-7.101l-0.69-3.048
						c-0.72-3.179-3.964-5.155-7.245-4.413l0,0c-3.281,0.742-5.356,3.922-4.636,7.101l0.691,3.048
						C341.946,486.537,345.19,488.513,348.471,487.771"/>
					<path style="fill:#2E275F;" d="M340.536,480.31c-0.39-1.72,0.044-3.437,1.04-4.772c0.432-0.27,0.905-0.474,1.419-0.591
						c2.895-0.655,5.877,1.619,6.661,5.079c0.784,3.46-0.928,6.796-3.823,7.451c-0.263,0.059-0.526,0.087-0.788,0.099
						c-1.869-0.654-3.359-2.189-3.818-4.219L340.536,480.31z"/>
				</g>
				<g>
					<path style="fill:#FFFFFF;" d="M329.895,495.378c1.477-2.545,6.267-0.739,9.756-1.341c3.725-0.643,5.122-4.192,8.727-2.526
						c6.004,2.774,1.296,9.529-7.251,11.462C333.388,504.722,326.642,500.986,329.895,495.378z"/>
					<path style="fill:none;stroke:#2E275F;stroke-miterlimit:10;" d="M329.161,497.059c0,0,11.878,6.825,20.56-4.819"/>
					<path style="fill:none;stroke:#2E275F;stroke-miterlimit:10;" d="M331.248,494.168c-3.235,1.465-1.896,5.547-1.896,5.547
						s2.121,4.761,8.919,3.77"/>
					<path style="fill:none;stroke:#2E275F;stroke-miterlimit:10;" d="M346.206,491.081c0,0,5.357,0.347,4.865,4.381"/>
					<path style="fill:none;stroke:#2E275F;stroke-miterlimit:10;" d="M334.716,495.032c0,0-0.665,4.317-0.338,5.965"/>
					<path style="fill:none;stroke:#2E275F;stroke-miterlimit:10;" d="M343.557,493.086c0,0,2.794,3.536,3.103,5.091"/>
					<line style="fill:none;stroke:#2E275F;stroke-miterlimit:10;" x1="339.73" y1="494.892" x2="341.166" y2="501.171"/>
				</g>
				<path style="fill:none;stroke:#2E275F;stroke-miterlimit:10;" d="M313.313,495.062c0,0-9.332-24.386,16.78-32.169"/>
				<path style="fill:none;stroke:#2E275F;stroke-miterlimit:10;" d="M342.749,511.494c0,0,18.424-1.585,19.953-21.272"/>
			</g>
			<g>
				<path style="fill:#EDC15A;" d="M46.233,538.639c0,0-6.743-36.348,30.558-36.58c39.079-0.243,38.333,59.48,0.256,59.317
					C77.047,561.376,50.78,563.061,46.233,538.639z"/>
				<g>
					<path style="fill:#FFFFFF;" d="M64.793,535.236L64.793,535.236c-3.982-0.043-7.175-3.207-7.132-7.066l0.041-3.699
						c0.043-3.859,3.306-6.953,7.288-6.909l0,0c3.982,0.043,7.175,3.207,7.132,7.066l-0.041,3.7
						C72.038,532.186,68.775,535.279,64.793,535.236"/>
					<path style="fill:#2E275F;" d="M72.122,524.627c0.024-2.088-0.906-3.968-2.39-5.264c-0.567-0.206-1.166-0.324-1.789-0.331
						c-3.513-0.038-6.4,3.335-6.447,7.535c-0.047,4.2,2.764,7.635,6.277,7.674c0.319,0.003,0.63-0.03,0.937-0.081
						c2.001-1.222,3.343-3.369,3.371-5.833L72.122,524.627z"/>
				</g>
				<g>
					<path style="fill:#FFFFFF;" d="M88.483,534.846L88.483,534.846c3.977-0.208,7.037-3.501,6.835-7.355l-0.194-3.695
						c-0.202-3.854-3.59-6.81-7.567-6.602l0,0c-3.977,0.208-7.037,3.501-6.835,7.355l0.194,3.695
						C81.119,532.098,84.506,535.054,88.483,534.846"/>
					<path style="fill:#2E275F;" d="M80.723,524.549c-0.11-2.085,0.741-4.001,2.17-5.358c0.558-0.229,1.152-0.372,1.774-0.404
						c3.509-0.183,6.532,3.068,6.752,7.262c0.22,4.194-2.446,7.743-5.955,7.926c-0.319,0.016-0.631-0.004-0.94-0.043
						c-2.05-1.138-3.479-3.228-3.608-5.688L80.723,524.549z"/>
				</g>
				<path style="fill:none;stroke:#2E275F;stroke-miterlimit:10;" d="M46.001,536.297c0,0-5.994-30.324,26.033-34.165"/>
				<path style="fill:none;stroke:#2E275F;stroke-miterlimit:10;" d="M77.047,561.376c0,0,21.813,1.848,27.548-20.814"/>
				<path style="fill:#2E275F;" d="M77.474,536.628c7.663,0.055,10.966,12.657-0.088,13.191
					C67.265,550.309,69.39,536.57,77.474,536.628z"/>
			</g>
			<g>
				<g>
					<path style="fill:#EDC15A;" d="M-29.383,221.588c0,0,3.76-36.777,39.619-26.5c37.567,10.767,20.042,67.864-16.451,56.991
						C-6.215,252.079-31.894,246.303-29.383,221.588z"/>
					<g>
						<path style="fill:#2E275F;" d="M4.613,244.283c-2.189,0.503-4.103-3.617-6.721-4.287c-2.795-0.715-7.124,3.24-8.341,0.464
							c-0.851-1.941,2.682-5.837,9.238-4.513C4.725,237.146,7.457,243.629,4.613,244.283z"/>
					</g>
					<path style="fill:none;stroke:#2E275F;stroke-miterlimit:10;" d="M-28.947,219.276c0,0,2.783-30.785,34.597-25.457"/>
					<path style="fill:none;stroke:#2E275F;stroke-miterlimit:10;" d="M-6.215,252.079c0,0,20.411,7.913,32.293-12.219"/>
				</g>
				<path style="fill:#2E275F;" d="M-5.939,223.819c-2.369-3.566-7.776-4.644-11.984-1.267c-1.282,1.029-2.19,4.434,1.597,2.631
					c4.099-1.951,6.181-0.656,10.095,0.679C-5.209,226.21-5.341,224.719-5.939,223.819z"/>
				<path style="fill:#2E275F;" d="M8.693,226.867c5.552-1.474,9.119,1.215,10.471,4.784c0.557,1.47,0.059,4.555-2.535,1.495
					c-2.473-2.918-4.536-4.039-7.969-3.856C6.643,229.398,6.964,227.326,8.693,226.867z"/>
			</g>
			<g>
				<g>
					<g>
						<g>
							<path style="fill:#EDC15A;" d="M425.177,508.684c0,0-12.472-21.634,11.234-30.173c24.836-8.946,37.796,29.26,13.507,37.723
								C449.918,516.234,433.568,523.217,425.177,508.684z"/>
							<path style="fill:#2E275F;" d="M435.121,505.484c0.998-1.946,6.438-1.396,10.205-2.729c4.021-1.423,5.358-5.43,8.736-4.36
								c5.713,1.81,3.736,10.496-5.404,14.27C440.381,516.082,431.988,511.596,435.121,505.484z"/>
							<path style="fill:#FFFFFF;" d="M445.326,502.755c-3.388,1.199-8.119,0.88-9.764,2.218c0.813,0.971,1.938,1.995,4.325,2.281
								c4.538,0.544,14.181-2.841,12.891-9.026C450.269,498.383,448.795,501.527,445.326,502.755z"/>
							<g>
								<path style="fill:#2E275F;" d="M433.477,494.925c5.225-1.749,8.009,4.75,5.876,5.81c-1.189,0.591-3.433-4.465-5.403-2.98
									c-1.97,1.486,0.253,4.379-1.784,5.158C430.128,503.692,428.347,496.642,433.477,494.925z"/>
								<path style="fill:#2E275F;" d="M448.367,489.036c5.225-1.749,8.009,4.75,5.876,5.81c-1.189,0.591-3.433-4.465-5.403-2.98
									c-1.97,1.486,0.253,4.379-1.784,5.158C445.018,497.803,443.237,490.753,448.367,489.036z"/>
							</g>
							<path style="fill:none;stroke:#2E275F;stroke-miterlimit:10;" d="M424.503,507.246c0,0-10.64-17.966,8.895-27.617"/>
							<path style="fill:none;stroke:#2E275F;stroke-miterlimit:10;" d="M449.918,516.234c0,0,14.309-3.73,12.863-19.454"/>
						</g>
					</g>
				</g>
				<g>
					<path style="fill:#80C5DB;" d="M454.76,488.272c10.311-3.107-3.792-16.139-5.27-15.297
						C448.012,473.816,447.509,490.457,454.76,488.272z"/>
					<path style="fill:#FFFFFF;" d="M451.269,475.088c-0.627-0.517-1.577-0.071-1.597,0.741c-0.081,3.272,0.224,9.892,4.138,8.615
						C458.03,483.068,454.264,477.558,451.269,475.088z"/>
					<path style="fill:none;stroke:#2E275F;stroke-miterlimit:10;" d="M449.49,472.975c0,0-2.614,8.454,0.638,12.932"/>
					<path style="fill:none;stroke:#2E275F;stroke-miterlimit:10;" d="M454.76,488.272c0,0,7.618-1.882,0.889-10.369"/>
				</g>
			</g>
			<g>
				<g>
					<path style="fill:#EDC15A;" d="M554.632,69.463c0,0-16.235-30.566,14.954-44.015c35.68-15.385,63.257,40.245,22.558,57.444
						C592.144,82.892,566.715,93.327,554.632,69.463z"/>
					<path style="fill:#2E275F;" d="M579.98,71.473c0.053,1.313,3.728-3.147,7.189-4.346c3.734-1.294,7.28,0.559,7.475-0.877
						c0.188-1.384-4.868-3.482-8.443-1.803C581.207,66.793,579.925,70.108,579.98,71.473z"/>
					<g>
						<path style="fill:#2E275F;" d="M567.318,51.91c8.188-2.786,11.782,6.56,9.236,8.037c-1.802,1.046-4.796-7.557-8.503-4.635
							c-3.57,2.815,0.571,7.324-2.76,8.109C563.018,63.957,559.28,54.645,567.318,51.91z"/>
						<path style="fill:#2E275F;" d="M590.832,42.439c7.046-2.655,11.633,7.046,9.047,8.149c-1.917,0.817-5.423-6.981-8.503-4.635
							c-3.08,2.347,0.689,6.895-2.574,7.929C586.375,54.651,582.886,45.432,590.832,42.439z"/>
					</g>
					<path style="fill:#2E275F;" d="M584.739,35.469c2.653,2.952,7.777,5.952,13.75,3.378c1.774-0.764,3.484-3.154-1.441-3.316
						c-4.712-0.156-7.3-0.218-11.645-2.393C584.268,32.57,583.89,34.525,584.739,35.469z"/>
					<path style="fill:#2E275F;" d="M567.702,41.73c-0.629,3.743-3.228,8.792-9.37,9.776c-1.824,0.292-4.43-0.76-0.537-3.416
						c3.724-2.541,5.782-3.918,8.175-7.901C566.595,39.148,567.903,40.533,567.702,41.73z"/>
				</g>
				<path style="fill:none;stroke:#2E275F;stroke-miterlimit:10;" d="M555.66,72.855c0,0-15.529-29.525,6.905-43.987"/>
				<path style="fill:none;stroke:#2E275F;stroke-miterlimit:10;" d="M579.424,84.826c0,0,19.426,3.072,29.919-17.541"/>
			</g>
			<g>
				<path style="fill:#9AC89A;" d="M695.676,64.872c0,0,12.828-32.134,42.935-16.605c35.337,18.227,5.622,69.3-34.79,57.13
					C703.821,105.397,686.788,88.722,695.676,64.872z"/>
				<g>
					<g>
						<path style="fill:#2E275F;" d="M746.713,76.786c7.998,8.849-9.774,22.672-20.359,13.994
							C715.767,82.103,738.715,67.938,746.713,76.786z"/>
						<path style="fill:#FFFFFF;" d="M742.049,77.447c5.226,3.588,0.857,12.94-6.541,9.426
							C728.109,83.358,736.824,73.859,742.049,77.447z"/>
					</g>
					<g>
						<path style="fill:#2E275F;" d="M711.353,54.907c-11.488-3.208-15.927,18.864-3.438,24.465
							C720.405,84.973,722.841,58.116,711.353,54.907z"/>
						<path style="fill:#FFFFFF;" d="M713.254,58.711c-5.543-3.075-11.962,5.008-5.516,10.06
							C714.185,73.824,718.797,61.786,713.254,58.711z"/>
					</g>
				</g>
				<path style="fill:#2E275F;" d="M720.689,91.169c0.396-1.133-2.193-0.803-5.233-2.199c-3.279-1.507-4.445-4.969-5.481-4.146
					c-0.998,0.793,1.078,5.182,4.426,6.524C718.536,93.005,720.371,92.078,720.689,91.169z"/>
			</g>
			<g>
				<path style="fill:#A691EA;" d="M755.392,253.426c0,0,12.268,7.867,21.919,2.239c0,0-6.351,15.606-17.942,12.668L755.392,253.426
					z"/>
				<path style="fill:#A691EA;" d="M739.429,239.856c0,0-9.739-10.841-5.739-21.272c0,0-14.38,8.78-9.615,19.747L739.429,239.856z"
					/>
				<path style="fill:#BCB8F4;" d="M748.435,241.105c24.639,19.025,5.683,46.124-4.937,49.58
					c-7.701,2.506-26.19,7.913-38.848-15.019C693.111,254.76,721.441,220.261,748.435,241.105z"/>
				<g>
					<path style="fill:#FFFFFF;" d="M716.682,263.49L716.682,263.49c-3.265-2.948-3.594-7.903-0.736-11.066l2.74-3.032
						c2.858-3.163,7.822-3.337,11.086-0.389l0,0c3.265,2.948,3.594,7.902,0.736,11.065l-2.74,3.032
						C724.91,266.264,719.946,266.438,716.682,263.49"/>
					<path style="fill:#2E275F;" d="M730.508,260.068c1.547-1.711,2.152-3.947,1.872-6.106c-0.319-0.585-0.728-1.121-1.239-1.582
						c-2.88-2.601-7.737-1.919-10.848,1.522c-3.11,3.443-3.297,8.342-0.416,10.943c0.262,0.236,0.544,0.436,0.835,0.618
						c2.55,0.452,5.232-0.344,7.056-2.363L730.508,260.068z"/>
				</g>
				<g>
					<path style="fill:#FFFFFF;" d="M736.578,280.493L736.578,280.493c3.444,2.737,8.386,2.249,11.037-1.09l2.541-3.2
						c2.651-3.338,2.009-8.263-1.435-11l0,0c-3.444-2.737-8.385-2.249-11.037,1.09l-2.541,3.201
						C732.491,272.832,733.134,277.757,736.578,280.493"/>
					<path style="fill:#2E275F;" d="M737.685,266.294c1.434-1.807,3.54-2.77,5.716-2.848c0.629,0.219,1.225,0.534,1.764,0.963
						c3.038,2.414,3.163,7.317,0.278,10.95c-2.886,3.633-7.688,4.621-10.727,2.206c-0.276-0.219-0.519-0.465-0.747-0.723
						c-0.864-2.441-0.519-5.217,1.173-7.348L737.685,266.294z"/>
				</g>
				<path style="fill:#2E275F;" d="M734.431,254.868c0.561-3.689-0.318-9.202-5.753-12.005c-1.614-0.833-4.371-0.649-1.549,3.026
					c2.699,3.516,4.199,5.433,5.212,9.887C732.605,256.94,734.251,256.048,734.431,254.868z"/>
				<path style="fill:#2E275F;" d="M742.613,260.769c3.467-0.844,8.793-0.47,11.92,4.471c0.929,1.468,0.985,4.109-2.753,1.73
					c-3.576-2.276-5.529-3.543-9.857-4.134C740.792,262.682,741.504,261.039,742.613,260.769z"/>
				<path style="fill:#2E275F;" d="M734.999,282.716c1.233-2.328-5.795-1.628-11.932-5.659c-6.622-4.35-6.713-13.084-9.234-11.639
					c-2.428,1.393,0.635,11.601,7.46,15.617C729.722,285.995,734.009,284.585,734.999,282.716z"/>
				<path style="fill:none;stroke:#2E275F;stroke-miterlimit:10;" d="M725.967,235.237c0,0,10.849-3.631,22.467,5.867"/>
				<path style="fill:none;stroke:#2E275F;stroke-miterlimit:10;" d="M760.856,260.522c0,0-0.708,33.423-31.217,33.005"/>
			</g>
			<g>
				<g>
					<g>
						<path style="fill:#EDC15A;" d="M714.186,7.76c0,0-15.392-32.914,18.027-45.352c38.231-14.229,64.179,45.571,20.589,61.434
							C752.803,23.842,725.584,33.427,714.186,7.76z"/>
						<path style="fill:#2E275F;" d="M761.563-27.363c-3.051-2.837-8.692-5.493-14.696-2.24c-1.783,0.966-3.347,3.625,1.818,3.333
							c4.941-0.28,7.654-0.458,12.401,1.408C762.328-24.375,762.54-26.455,761.563-27.363z"/>
						<path style="fill:#2E275F;" d="M716.494-15.039c1.338-3.753,4.954-8.494,11.483-8.382c1.939,0.033,4.439,1.6-0.073,3.63
							c-4.317,1.942-6.697,2.987-9.903,6.664C717.163-12.167,716.066-13.839,716.494-15.039z"/>
					</g>
					<path style="fill:none;stroke:#2E275F;stroke-miterlimit:10;" d="M715.084,11.372c0,0-14.708-31.785,9.586-45.752"/>
					<path style="fill:none;stroke:#2E275F;stroke-miterlimit:10;" d="M739.362,25.191c0,0,20.205,4.257,32.306-16.796"/>
				</g>
				<path style="fill:#2E275F;" d="M744.736-1.23c11.067-3.288,25.214,17.22,7.157,22.528C737.245,25.604,733.06,2.24,744.736-1.23z
					"/>
				<g>
					<path style="fill:#2E275F;" d="M735.081-2.265L724.539-7.88c-0.719-0.383-0.991-1.276-0.608-1.995l0,0
						c0.383-0.719,1.276-0.991,1.995-0.608l10.542,5.615c0.719,0.383,0.991,1.276,0.608,1.995l0,0
						C736.693-2.154,735.8-1.882,735.081-2.265z"/>
					<path style="fill:#2E275F;" d="M734.613-10.951L728.998-0.41c-0.383,0.719-1.276,0.991-1.995,0.608l0,0
						c-0.719-0.383-0.991-1.276-0.608-1.995l5.615-10.542c0.383-0.719,1.276-0.991,1.995-0.608l0,0
						C734.723-12.564,734.996-11.67,734.613-10.951z"/>
				</g>
				<g>
					<path style="fill:#2E275F;" d="M757.674-9.582l-10.542-5.615c-0.719-0.383-0.991-1.276-0.608-1.995l0,0
						c0.383-0.719,1.276-0.991,1.995-0.608l10.542,5.615c0.719,0.383,0.991,1.276,0.608,1.995l0,0
						C759.287-9.471,758.393-9.199,757.674-9.582z"/>
					<path style="fill:#2E275F;" d="M757.206-18.269l-5.615,10.542c-0.383,0.719-1.276,0.991-1.995,0.608l0,0
						c-0.719-0.383-0.991-1.276-0.608-1.995l5.615-10.542c0.383-0.719,1.276-0.991,1.995-0.608l0,0
						C757.317-19.881,757.589-18.988,757.206-18.269z"/>
				</g>
			</g>
			<g>
				<g>
					<path style="fill:#EDC15A;" d="M686.714,40.508l-3.881,3.337c-6.25,5.373-15.672,4.662-21.046-1.588l-5.75-6.689
						c-5.373-6.25-4.662-15.673,1.588-21.046l3.881-3.337c6.25-5.373,15.672-4.662,21.046,1.588l5.75,6.689
						C693.675,25.713,692.964,35.135,686.714,40.508z"/>
					<path style="fill:#EDC15A;" d="M669.744,42.995l-11.488,12.62c-2.346,2.577-6.418,2.519-8.69-0.123l-8.447-9.826
						c-2.235-2.6-1.74-6.561,1.065-8.531l13.706-9.624L669.744,42.995z"/>
					<path style="fill:#EDC15A;" d="M682.689,12.557l-10.979,9.439c-1.878,1.615-4.709,1.401-6.324-0.477l-1.538-1.789
						c-1.615-1.878-1.401-4.71,0.477-6.324l10.979-9.439c1.878-1.615,4.709-1.401,6.324,0.477l1.538,1.789
						C684.781,8.111,684.567,10.942,682.689,12.557z"/>
					<path style="fill:#EDC15A;" d="M682.574,12.655l-9.191,7.901c-2.372,2.039-2.884,5.333-1.144,7.358
						c1.74,2.024,5.074,2.012,7.446-0.027l9.191-7.901c2.372-2.039,2.884-5.333,1.144-7.358
						C688.28,10.604,684.946,10.616,682.574,12.655z"/>
					<path style="fill:#EDC15A;" d="M687.006,22.136l-7.565,6.503c-1.952,1.678-2.274,4.506-0.719,6.314
						c1.555,1.809,4.399,1.915,6.351,0.236l7.565-6.503c1.952-1.678,2.274-4.506,0.719-6.315
						C691.801,20.564,688.958,20.458,687.006,22.136z"/>
					<path style="fill:#EDC15A;" d="M691.07,28.678l-7.024,6.039c-1.813,1.559-2.112,4.184-0.668,5.863
						c1.444,1.68,4.084,1.778,5.897,0.219l7.024-6.039c1.813-1.558,2.112-4.184,0.668-5.863
						C695.523,27.218,692.883,27.12,691.07,28.678z"/>
					<path style="fill:#EDC15A;" d="M652.813,31.188c0,0-7.421-9.895-2.636-17.264c0,0-12.043-9.976-9.969-12.858
						c3.584-4.98,7.758-4.228,11.933-1.579c3.093,1.961,13.428,13.411,13.428,13.411s-5.861,19.686-9.295,20.739
						C652.84,34.691,652.813,31.188,652.813,31.188z"/>
				</g>
				<path style="fill:none;stroke:#2E275F;stroke-miterlimit:10;" d="M663.238,43.946c0,0,8.976,9.27,17.906,1.351"/>
				<path style="fill:none;stroke:#2E275F;stroke-linejoin:round;stroke-miterlimit:10;" d="M670.363,8.251
					c0,0-7.705,5.145-6.981,9.255c0.724,4.111,4.54,7.267,9.222,3.721c0,0-3.744,3.872,0.039,7.396
					c2.972,2.769,6.798,0.017,6.798,0.017s-3.459,4.212-1.157,6.374c2.302,2.162,4.6,1.222,4.6,1.222s-1.114,3.176,1.224,4.864
					c2.338,1.687,7.041-1.616,8.352-3.187"/>
				<path style="fill:none;stroke:#2E275F;stroke-linejoin:round;stroke-miterlimit:10;" d="M674.636,19.071
					c0,0,5.938-7.028,11.557-7.717"/>
				<path style="fill:none;stroke:#2E275F;stroke-linejoin:round;stroke-miterlimit:10;" d="M682.066,25.994
					c0,0,5.258-6.443,9.652-4.6"/>
				<path style="fill:none;stroke:#2E275F;stroke-linejoin:round;stroke-miterlimit:10;" d="M686.2,32.35
					c0,0,5.258-6.443,8.995-4.332"/>
			</g>
			<g>
				<g>
					<g>
						<path style="fill:#EDC15A;" d="M684.477,185.654l5.393,14.527c2.534,6.826,10.121,10.305,16.947,7.771l18.683-6.936
							c6.825-2.534,10.305-10.121,7.771-16.947l-5.393-14.527c-2.534-6.826-10.121-10.305-16.947-7.771l-18.682,6.936
							C685.422,171.241,681.943,178.829,684.477,185.654z"/>
						<path style="fill:#EDC15A;" d="M711.713,142.215c-1.274-3.52-4.841-5.405-7.967-4.212c-3.127,1.193-4.628,5.013-3.354,8.533
							l7.923,21.728c1.274,3.519,4.841,5.405,7.968,4.212c3.127-1.193,4.628-5.014,3.354-8.533L711.713,142.215z"/>
						<path style="fill:#EDC15A;" d="M706.583,163.264l5.05,13.603c1.303,3.511-0.069,7.259-3.065,8.371
							c-2.996,1.112-6.482-0.832-7.785-4.343l-5.05-13.603c-1.303-3.511,0.069-7.259,3.065-8.371
							C701.794,157.809,705.28,159.753,706.583,163.264z"/>
						<path style="fill:#EDC15A;" d="M696.447,170.629l4.156,11.196c1.073,2.89-0.228,6.038-2.905,7.032
							c-2.677,0.994-5.718-0.543-6.79-3.432l-4.156-11.196c-1.073-2.89,0.228-6.038,2.905-7.032
							C692.334,166.202,695.374,167.739,696.447,170.629z"/>
						<path style="fill:#EDC15A;" d="M678.819,165.29l10.968,11.509c2.831,2.97,3.569,6.861,1.65,8.691
							c-1.92,1.83-5.771,0.905-8.602-2.066l-10.968-11.509c-2.831-2.97-3.569-6.861-1.65-8.691
							C672.137,161.395,675.988,162.32,678.819,165.29z"/>
					</g>
					<path style="fill:none;stroke:#2E275F;stroke-miterlimit:10;" d="M708.709,207.249c0,0-14.775,4.511-19.542-8.961"/>
					<path style="fill:none;stroke:#2E275F;stroke-linejoin:round;stroke-miterlimit:10;" d="M712.062,178.021
						c0,0,1.678,6.226-4.327,7.726c-4.718,1.179-7.132-3.922-7.132-3.922s1.183,6.417-2.481,7.348
						c-3.665,0.931-5.527-1.386-5.527-1.386"/>
					<path style="fill:none;stroke:#2E275F;stroke-linejoin:round;stroke-miterlimit:10;" d="M711.182,174.585
						c0,0-2.149-10.803-7.636-14.781"/>
					<path style="fill:none;stroke:#2E275F;stroke-linejoin:round;stroke-miterlimit:10;" d="M699.386,177.532
						c0,0-1.775-9.796-7.446-10.412"/>
					<path style="fill:none;stroke:#2E275F;stroke-linejoin:round;stroke-miterlimit:10;" d="M691.373,181.796
						c0,0-1.775-9.796-6.914-9.75"/>
				</g>
				<path style="fill:#EDC15A;" d="M720.959,180.106c0,0,4.225-7.037,13.621-7.649c0,0,11.113-14.715,13.852-3.624
					c0,0,3.605,2.981-10.051,15.435c0,0-0.167,15.512-20.352,19.519"/>
			</g>
			<g>
				<g>
					<g>
						<path style="fill:#EDC15A;" d="M149.994,18.39c20.959,6.693,40.411,20.689,62.396,19.857
							C240.922,37.167,262.152,11.885,288.012,0H33.675c11.138,5.479,23.851,8.7,36.087,10.075
							C96.555,13.085,124.31,10.188,149.994,18.39z"/>
					</g>
					<g>
						<path style="fill:#EDC15A;" d="M351.163,0c5.314,1.442,10.612,2.937,15.884,4.241c18.858,4.667,40.815,6.16,56.529-4.241
							H351.163z"/>
					</g>
				</g>
				<g>
					<path style="fill:#EDC15A;" d="M750,500v-33.681c-13.098-1.684-26.442-1.753-39.54-0.313
						c-33.213,3.652-64.931,16.492-93.43,33.993H750z"/>
				</g>
				<path style="fill:#EDC15A;" d="M67.321,31.777c13.245,0.736,11.933,15.136,1.332,16.504
					C57.347,49.74,55.963,31.146,67.321,31.777z"/>
				<path style="fill:#EDC15A;" d="M505.927,464.824c19.803,1.1,17.841,22.63,1.991,24.676
					C491.015,491.681,488.946,463.881,505.927,464.824z"/>
				<path style="fill:#EDC15A;" d="M433.224,18.403c8.584,0.477,7.734,9.809,0.863,10.696
					C426.76,30.045,425.864,17.994,433.224,18.403z"/>
				<path style="fill:#EDC15A;" d="M89.798,390.087c6.618,0.368,5.962,7.563,0.665,8.246
					C84.814,399.063,84.123,389.772,89.798,390.087z"/>
				<path style="fill:#EDC15A;" d="M707.269,355.492c10.977,0.61,9.889,12.543,1.104,13.677
					C699.003,370.379,697.856,354.97,707.269,355.492z"/>
				<path style="fill:#EDC15A;" d="M602.496-3.226c8.584,0.477,7.734,9.809,0.863,10.696C596.032,8.416,595.135-3.635,602.496-3.226
					z"/>
			</g>
		</g>
		<g style="clip-path:url(#SVGID_00000159466057870807521700000008184055983645204660_);">
			<g>
				<path style="fill:#DB7FA0;" d="M203.637,492.193c0,0,12.861-8.72,8.921-15.649c-4.543-7.991-10.764-3.362-11.68,0.521
					c0,0-2.541-6.573-7.906-1.995C186.038,480.987,196.264,491.153,203.637,492.193z"/>
				<path style="fill:none;stroke:#FFFFFF;stroke-miterlimit:10;" d="M195.211,474.83c0,0-1.587,0.088-2.447,2.326"/>
				<path style="fill:none;stroke:#FFFFFF;stroke-miterlimit:10;" d="M206.591,473.121c-0.374,0.013-0.771,0.065-1.192,0.162"/>
				<path style="fill:none;stroke:#FFFFFF;stroke-miterlimit:10;" d="M212.528,479.341c0,0-0.881-5.241-4.658-6.104"/>
			</g>
			<g>
				<path style="fill:#DB7FA0;" d="M47.547,357.292c0,0,15.532,0.439,16.384-7.487c0.982-9.139-6.771-9.018-9.783-6.402
					c0,0,1.779-6.819-5.25-6.238C39.812,337.915,42.171,352.14,47.547,357.292z"/>
				<path style="fill:none;stroke:#FFFFFF;stroke-miterlimit:10;" d="M50.854,338.278c0,0-1.339-0.856-3.345,0.457"/>
				<path style="fill:none;stroke:#FFFFFF;stroke-miterlimit:10;" d="M61.088,343.54c-0.312-0.208-0.664-0.398-1.062-0.565"/>
				<path style="fill:none;stroke:#FFFFFF;stroke-miterlimit:10;" d="M62.271,352.057c0,0,2.348-4.768-0.214-7.676"/>
			</g>
			<g>
				<path style="fill:#DB7FA0;" d="M34.263,32.678c0,0,5.838-12.037-0.082-15.509c-6.827-4.004-9.474,2.125-8.486,5.415
					c0,0-4.723-3.808-6.754,1.915C16.318,31.895,28.318,35.075,34.263,32.678z"/>
				<path style="fill:none;stroke:#FFFFFF;stroke-miterlimit:10;" d="M20.508,23.356c0,0-1.145,0.748-0.824,2.787"/>
				<path style="fill:none;stroke:#FFFFFF;stroke-miterlimit:10;" d="M28.258,17.184c-0.274,0.171-0.547,0.381-0.819,0.634"/>
				<path style="fill:none;stroke:#FFFFFF;stroke-miterlimit:10;" d="M35.362,19.268c0,0-2.912-3.529-6.101-2.547"/>
			</g>
			<g>
				<path style="fill:#DB7FA0;" d="M660.914,96.473c0,0,13.107-2.678,12.267-9.49c-0.969-7.854-7.445-6.232-9.457-3.448
					c0,0,0.154-6.065-5.625-4.2C650.63,81.746,655.397,93.209,660.914,96.473z"/>
				<path style="fill:none;stroke:#FFFFFF;stroke-miterlimit:10;" d="M659.958,79.885c0,0-1.29-0.455-2.714,1.039"/>
				<path style="fill:none;stroke:#FFFFFF;stroke-miterlimit:10;" d="M669.57,82.289c-0.302-0.114-0.635-0.203-1.001-0.266"/>
				<path style="fill:none;stroke:#FFFFFF;stroke-miterlimit:10;" d="M672.232,89.197c0,0,1.033-4.458-1.684-6.393"/>
			</g>
			<g>
				<path style="fill:#DB7FA0;" d="M754.168,134.793c0,0,3.883-12.802-2.507-15.305c-7.369-2.886-9.025,3.581-7.534,6.676
					c0,0-5.261-3.022-6.371,2.948C736.32,136.827,748.671,138.091,754.168,134.793z"/>
				<path style="fill:none;stroke:#FFFFFF;stroke-miterlimit:10;" d="M739.124,127.738c0,0-1.014,0.918-0.378,2.882"/>
				<path style="fill:none;stroke:#FFFFFF;stroke-miterlimit:10;" d="M745.813,120.429c-0.244,0.212-0.481,0.461-0.71,0.754"/>
				<path style="fill:none;stroke:#FFFFFF;stroke-miterlimit:10;" d="M753.156,121.376c0,0-3.429-3.03-6.424-1.562"/>
			</g>
			<g>
				<path style="fill:#DB7FA0;" d="M742.69,337.712c0,0,9.372-9.547,4.868-14.725c-5.193-5.972-9.657-1.007-9.769,2.426
					c0,0-3.262-5.116-7.012-0.339C725.93,331.247,736.29,338.088,742.69,337.712z"/>
				<path style="fill:none;stroke:#FFFFFF;stroke-miterlimit:10;" d="M732.626,324.49c0,0-1.324,0.344-1.67,2.379"/>
				<path style="fill:none;stroke:#FFFFFF;stroke-miterlimit:10;" d="M741.94,321.112c-0.314,0.075-0.64,0.186-0.979,0.339"/>
				<path style="fill:none;stroke:#FFFFFF;stroke-miterlimit:10;" d="M748.008,325.353c0,0-1.635-4.274-4.97-4.36"/>
			</g>
		</g>
	</g>
</g>
</svg>
