<?xml version="1.0" encoding="UTF-8"?>
<svg id="Layer_2" data-name="Layer 2" xmlns="http://www.w3.org/2000/svg" viewBox="0 0 291.12793 19.03439">
  <defs>
    <style>
      .cls-1 {
        fill: #231f20;
        stroke-width: 0px;
      }
    </style>
  </defs>
  <g id="Layer_1-2" data-name="Layer 1">
    <g>
      <path class="cls-1" d="M4.32617,18.87305l-.60742-.02539h-.12598c-.15234.02539-.27832.02539-.43066-.02539l-.4043-.07617-.30371-.0498-.6582-.17773-.30371-.0752-.35352-.12695c-.15234-.05078-.27832-.10156-.40527-.20215l-.10059-.07617-.15234-.25293c-.07617-.15137-.15137-.25293-.17676-.42969v-.70898l.02539-.12598v-.55664l-.05078-.22754.02539-.55664-.05078-.30371.07617-.55664s.15137-.17773.30371-.30371c.15137-.12695.35352-.07617.53125.02539l.27832.15137.32812.07617.3291.10156c.07617.02539.17676.0498.25293.10059l.17773.07617.55566.10156.37988.0498.63281.07617.27832.02539.35352.10156.30371.02539.58203-.05078h.27832l.3291-.05078h.22754l.35449-.02539.53125-.17676.25293-.10156.3291-.48047.0498-.27832.02539-.22754v-.35449l-.17676-.45508-.25293-.20312-.40527-.27734-.22754-.20312-.50586-.10059c-.07617-.02539-.15137-.05078-.20215-.07617l-.22754-.07617-.50586-.20215-.3291-.12695-.05078-.02441c-.12695-.02539-.25293-.05078-.35449-.12695l-.10059-.07617-.15234-.02539c-.10059-.02539-.22754-.0752-.3291-.15137l-.32812-.17676-.27832-.12695-.55664-.27832-.27832-.20215-.40527-.25293c-.0752-.05078-.15137-.10156-.22754-.15234l-.10059-.10059-.35449-.25293c-.10156-.07617-.20215-.12695-.27832-.22852l-.05078-.0752-.17676-.17773c-.12695-.15137-.22754-.27832-.27832-.45508-.15234-.10059-.30371-.27832-.43066-.55664v-.02539c-.02539-.0752-.0752-.15137-.0752-.22754l-.02539-.17676-.12695-.53125-.07617-.27832c0-.05078-.02441-.10156-.02441-.17773l-.02539-.48047-.07617-.30371v-.32812l.02539-.30371-.02539-.27832.02539-.22754c.02539-.25391.10059-.40527.20215-.55664l.17676-.50586.10156-.35449.22754-.48047c.02539-.07617.07617-.10156.10156-.15234l.10059-.15137.25293-.3291c.07617-.07617.17773-.15137.25391-.22754l.0752-.07617.37988-.27832c.05078-.02539.10156-.07617.15137-.10156l.22754-.12598.50684-.27832.0752-.07617c.10156-.0752.25293-.12598.37988-.17676l.15137-.02539.10156-.07617c.10156-.0752.20215-.12598.3291-.17676l.10059-.05078.53125-.15137.37988-.07617.53125-.12695.20215-.0498c.07617-.02539.17773-.02539.25293-.02539h.37988l.35449.02539h.32812l.02539-.02539c.12695-.02539.25293-.02539.37988,0l.10156.02539.7334.0498.53125.02539.35449.05078.35352.05078c.07617.02539.15234.02539.22754.05078l.20312.07617.55664.12598.25293.05078.30273.05078c.17773.02539.3291.10059.48145.20215l.17676.27832c.07617.10059.15234.22754.17676.35449l.02539.12598-.02539.58203v1.11328c0,.05078-.02441.15137-.02441.20215l-.02539.22754.02539.6582s-.10156.17676-.20312.30371c-.12598.12598-.27832.17676-.42969.17676-.10156,0-.20215-.02539-.30371-.05078l-.27832-.07617c-.05078-.02441-.12695-.0498-.17676-.0752l-.20312-.12695-.50586-.22754-.3291.02539-.32812-.07617-.27832.05078-.30371-.02539c-.02539,0-.02539-.02539-.05078-.02539l-.55664-.05078-.27832-.02441h-.02539c-.17676.0498-.35352.02441-.53125,0h-.37891l-.53125.0498-.22852.05078-.55566.12695-.27832.20215-.20312.37988-.02539.35352.07617.30371-.02539.22754.27832.50586.17773.15234.42969.35449.27832.12598.25293.15137.02539.02539c.12598.02539.27832.07617.4043.15234l.07617.02539.53125.30371.27832.0752.25293.12695h.02539l.27832.15137.25293.20312.50586.17676.12695.02539c.12598.02539.25293.05078.37891.12598l.35449.17773.17676.10059c.05078.02539.10156.05078.15234.10156l.4043.30371.22754.20215.58203.45508.22754.20312.25391.25293c.12598.12598.20215.22754.27734.35352l.02539.07617.20312.27832c.0752.12695.15137.25293.17676.42969l.12598.60742c.10156.12695.15234.30371.17773.53125l.05078.27832.02539.35449.0498.35449v.35352l-.02539.27832-.02441.50586c0,.05078-.02539.15234-.02539.20312l-.05078.17676-.22754.55664-.07617.17676c-.02539.10156-.10156.20215-.15137.27832l-.17773.25293c-.02539.05078-.10059.10156-.15137.15234l-.10156.10059-.4043.45605v.02539c-.07617.10059-.20312.17676-.30371.25293l-.30371.20215-.15234.20215-.10059.07617c-.05078.05078-.12695.07617-.22754.12598l-.43066.20312-.83496.27832c-.12598.15137-.35352.22754-.65723.27832-.05078.02441-.15234.02441-.25293.02441h-.20312l-.55566.07617-.3291.10156c-.07617.02539-.12695.02539-.20215.02539l-.30371.0498c-.12695.02539-.25293,0-.37988-.02441l-.12695-.02539-.30273.02539-.3291-.02539h-.25293l-.6582-.05078-.17676-.02539Z"/>
      <path class="cls-1" d="M20.26562,18.56934l-.10156.02539h-.55664l-.30371.07617-.63184.02539-.20312.02539h-.22754l-.48047-.05078-.25293-.05078-.63281-.02539s-.30371-.20215-.45508-.37988c-.10156-.12598-.10156-.25293-.12695-.42969l-.0498-.45508v-.25293l.02441-.6582.02539-.25293-.0498-.50586c0-.10156,0-.17676.02441-.27832l.02539-.27832.02539-.58203-.05078-.30371v-.63184l-.0498-.60742v-.22754l.02539-.25293.02441-.58203c0-.10156,0-.12695.02539-.22754l.05078-.12695-.05078-.7334-.10059-.70898v-1.1123c0-.07617.02539-.12695.02539-.17773l.10059-.55664-.02539-.22754-.0498-.50586v-.35449l-.05078-.60645v-.10156c0-.12695-.02539-.17676,0-.30371l.0752-.53125-.02441-.35449.02441-.55664v-.30371l.07617-.63184-.05078-.30371-.0498-.60742v-1.16309l-.02539-.53223v-.20215l.02539-.25293.10059-.07617c.20215-.20215.37988-.30273.55664-.32812l.60742.0752.3291-.02441.60645-.02539h.20312l.53125.0498.30371-.02441.88477.12598s.30371.20215.45605.37988c.0752.10059.0752.22754.0752.37891l-.02539.45605-.02539.32812.07617.48145v.4043l.02539.58203v.27832l-.05078.68262.07617.3291v.55664l-.02539.27832.02539.37988c0,.15137,0,.30273-.05078.48047l-.02539.02539-.05078.53125.05078.35352-.05078.53125-.0498.25391.02539.50586v.20215l-.02539.22754.0498.53125c0,.12695.02539.20215,0,.3291l-.02441.15137v.86035l.0498.58203.02539.35449-.02539.60645v.83496c0,.10156,0,.15234-.02539.25293l-.0498.15234.02539.48047.0498.35449-.0498.60645.0498.27832-.0752.70898.0752.22754v1.29004l-.0498.35449c0,.17676-.02539.25293-.12695.3291-.10156.0498-.25293.12598-.42969.15137Z"/>
      <path class="cls-1" d="M39.89746,17.91211l-.53125.22754c-.05078.02539-.12695.05078-.20215.0752l-.6582.15234-.3291.10059-.58203.07617-.30371.10156-.53125.10059h-.30273l-.58203.07617-.37988.15234-.42969.0498c-.15234.02539-.30371,0-.45605-.0498l-.0752-.02539-.22754.02539-.63281-.02539-.58203-.07617-.3291-.05078-.60742-.07617h-.15137c-.10156,0-.20215-.02441-.30371-.0498l-.4043-.10156-.3291-.07617-.17676-.05078c-.20312-.0498-.37988-.12598-.50684-.25293l-.25293-.0498-.58105-.25293-.12695-.02539c-.10156-.02539-.20215-.07617-.30371-.12695l-.25293-.15137c-.07617-.05078-.12598-.07617-.20215-.15234l-.12695-.12598-.42969-.3291-.25293-.15234-.27832-.15137c-.17773-.12598-.27832-.27832-.37988-.42969v-.02539l-.4043-.40527c-.07617-.07617-.10156-.12598-.15234-.17676l-.10059-.15234-.3291-.45508-.15234-.20215-.30273-.48047-.12695-.30371-.27832-.48047-.10156-.22852-.27734-.63184-.07617-.17773c-.02539-.10059-.05078-.20215-.07617-.27832l-.05078-.32812c0-.05078-.02539-.15234-.02539-.20312v-.17676l-.15137-.63281-.05078-.27832-.05078-.58105-.05078-.3291v-.86035l.02539-.42969c.02539-.15234.07617-.30371.12695-.43066l.02539-.05078.17676-.53125.05078-.32812.15137-.55664v-.07617c.02539-.15234.05078-.27832.10156-.37988l.15137-.32812c0-.17773.07617-.35449.20312-.55664l.10059-.17773.15234-.22754.37891-.50586.20312-.27832.25293-.42969c.02539-.05078.0752-.10156.12598-.15234l.20215-.20215.27832-.40527.12695-.12598c.07617-.10156.15137-.17676.22754-.22754l.35449-.22754.10059-.15234c.07617-.10059.17773-.15137.27832-.22754l.30371-.20215.22754-.17773.50684-.25293.22754-.12598.25293-.07617c.05078-.02539.07617-.02539.12598-.05078l.22754-.05078.27832-.12598.6582-.15234.30371-.17676.53125-.10059.27832-.10156.45508-.05078.30371-.07617.42969-.10059c.10156-.02539.22852,0,.3291,0h.15234l.30371.05078.30273.02441.37988.02539.58203.02539.22754-.05078h.35449c.10059,0,.22754.02539.3291.05078l.15137.05078.50586.07617.27832.02539.58203.17676.27832.05078.15137.02539c.10156.02539.22754.05078.30371.10059l.10156.05078.25293.05078.42969.25293c.20312.12695.37988.22754.50586.45508l.05078.10156c.02539.05078.05078.07617.07617.15137l.05078.15234v.68262l.02539.07617c.02539.12695.02539.30371,0,.42969l-.02539.07617.0752.27832v.60742l-.0498.50586v.3291s-.12695.12598-.27832.25293c-.20312.15137-.43066.07617-.63281-.05078l-.50586-.17676-.7334-.22754h-.3291l-.7334-.17773-.6582-.12598-.40527-.07617-.65723-.05078-.63281.05078-.37891.07617-.6582.0498-.27832.05078-.4043.10156c-.12695.02539-.25293.02539-.37988.02539h-.07617l-.42969.20215-.25293.12695-.45508.32812-.30371.22852-.37988.32812-.15137.17773-.43066.55664-.15137.22754-.25293.53125v.30371l-.35449.75879-.02539.48047.02539.3291v.25293l.02539.12598c.05078.12695.07617.22852.07617.37988v.12695l.0498.58105-.02441.35449.22754.60742.17676.20215.25293.48047c.02539.07617.05078.15234.07617.22754l.07617.15234.37891.55664.12695.22754.50586.3291.27832.15137.63184.27832.27832.15234.53125.25293.27832.10059.6582.10156.53125-.02539.30371-.05078h.3291l.55664-.02539.27832-.12598h.25293l.17676-.37988.02539-.37891.07617-.55664-.05078-.3291.10059-.68359-.0498-.65723-.02539-.30371-.07617-.40527c-.02539-.12598,0-.25293.02539-.37891l.02539-.15234.10059-.0752c.10156-.10156.22852-.17773.3291-.20215.17773-.10156.37988-.07617.55664-.05078l.35449.05078.22754-.02539.53125.02539.27832-.05078.48047.02539.3291-.02539h.4043c.10156,0,.17773.02539.27832.05078l.17773.02441c.20215.17773.3291.37988.27832.55664l.10059.70898.02539.30371.05078.48047v.27832l-.02539.22754v.83496l.02539.35449c0,.17676-.02539.35352-.10156.53125v.65723l-.0498.27832-.02539.70801.05078.25391.02441.60645c0,.07617,0,.20312-.02441.27832l-.02539.15234-.15234.25293c-.10059.17676-.25293.27832-.42969.3291Z"/>
      <path class="cls-1" d="M59.75781,18.89844l-.05078-.02539c-.20215-.10156-.35449-.25293-.45508-.45508l-.20312-.15234c-.15137-.12598-.30371-.25293-.37891-.4043l-.3291-.22754c-.10156-.07617-.22754-.15234-.30371-.25391l-.10156-.12598-.48047-.40527-.22754-.17676-.35449-.3291c-.0498-.02539-.10059-.0752-.12598-.12598l-.10156-.10156-.42969-.4043-.30371-.27832-.53125-.37988-.50586-.48047-.25293-.25293-.50586-.50586-.53125-.43066-.25293-.22754-.40527-.27832c-.05078-.05078-.10156-.07617-.15137-.12598l-.15234-.17773-.53125-.4043-.22754-.22754-.40527-.30371c-.0498-.05078-.12598-.07617-.17676-.15234l-.35449-.4043-.25293-.17773-.20215-.15137-.25293-.20215-.27832-.25293-.50586-.37988-.25293-.22754-.25293.10156.02539.37891v.63281l-.02539.3291-.05078.65723.07617.22754.05078.60742v.3291l-.02539.53125.02539.30371v.63184l.02441.27832v.53125l-.02441.3291-.05078.63281v.25293l-.05078.53125.02539.27832.02539.58203v.07617c0,.12598,0,.20215-.02539.32812l-.02539.15234c-.20215.17676-.45508.22754-.6582.15137l-.53125-.02539-.27832.02539-.58105.02539-.30371-.02539-.63281.05078-.30371-.02539-.42969.02539c-.07617,0-.17773.02539-.25293,0l-.25293-.05078c-.15234-.15137-.22852-.35352-.20312-.58203l-.02539-.60645-.0498-.35449-.05078-.45508v-.35449l.05078-.58203v-.30371l-.02539-.20215c-.02539-.25293,0-.42969.0752-.60742l-.0498-.53125-.02539-.17676c-.02539-.12695-.02539-.17773-.02539-.30371l.02539-.42969.02539-.30371v-.53125c0-.05078.02539-.12695.02539-.20312l.0498-.22754.05078-.58203-.05078-.12598c-.02539-.12695-.0498-.30371-.02539-.45508l.05078-.35449-.02539-.50586c0-.10156,0-.17773.02539-.27832l.02539-.22754.02539-.60742-.02539-.37988-.10059-.50586c-.02539-.10156-.02539-.17676-.02539-.25293v-.4043c0-.10156,0-.12695.02539-.22852l.0498-.27832v-.96094l-.0498-.27832c-.02539-.12598,0-.30371.02441-.42969v-.05078l-.0752-.37988c-.02539-.12598-.02539-.17676-.02539-.30371v-.50586c0-.17676,0-.30371.05078-.42969v-.48047c0-.07617,0-.15234.02539-.25293l.0498-.15234-.0498-.63281v-.37891l-.07617-.53125c0-.05078-.02539-.15234-.02539-.20215v-.12695c.05078-.17676.15137-.30371.20215-.27832l.30371.10156.68359.63184.20215.22754.48047.35449.17676.17773.37988.22754c.12598.0752.22754.12598.30371.20215l.07617.07617.4043.45508.20215.25293.40527.37988.20215.22754.3291.27832c.05078.02539.10059.0752.12598.12598l.15234.17773.22754.15137.25293.15137.20215.15234c.02539.02539.07617.05078.12695.10156l.4043.4043.22754.17676.55664.43066.50586.48047.17773.15137.45508.45605.22754.25293.58203.35449.10156.0752c.02539.02539.0752.02539.12598.07617l.37988.3291.30371.27832.17676.20215.25293.30371.50586.4043.27832.20312.25293-.15234.07617-.4043.02539-.43066c0-.05078.02539-.15137.05078-.20215l.05078-.25293-.07617-.48047-.05078-.27832-.02539-.6582.02539-.22754.05078-.6582-.07617-.27734.05078-.50684.05078-.35352.05078-.63281-.02539-.27832v-.55664l-.02539-.35449.02539-.50586-.02539-.17676c-.02539-.12695-.05078-.20215-.02539-.35449l.05078-.37891s.37891-.53125.60645-.6582c.05078-.02539.12695-.02539.17773-.02539l.58203-.02539.68262.02539.25293-.02539h.50586c.07617,0,.17773,0,.25293.02539l.10156.02539.60742-.07617h.0752c.35449,0,.53125.35449.58203.60742,0,.05078.02539.07617.02539.12695l.02539.50586.05078.3291-.05078.60645v.30371l-.02539.48047-.02539.3291v1.49316l.02539.10059c.02539.12695.02539.30371,0,.43066l-.02539.25293.02539.3291v.58105l.02539.30371v.6582l.02539.22754.02539.3291c.02539.22754-.02539.4043-.10156.55664l-.02539.53125.05078.3291.02539.50586v.32812l.05078.45605c0,.05078.02539.12598.02539.17676v.3291l-.15234.65723.02539.63281.12695.30371v.42969c0,.12695-.02539.20312-.05078.30371l-.05078.17773-.05078.65723c.07617.17773.10156.37988.07617.63281v.17676l-.02539.30371.02539.60742-.02539.27832.02539.50586.02539.35449.02539.37891c.02539.12695,0,.30371-.02539.43066v.25293c0,.10059-.07617.17676-.20215.20215Z"/>
      <path class="cls-1" d="M73.87598,18.56934l-.10156.02539h-.55664l-.30371.07617-.63184.02539-.20312.02539h-.22754l-.48047-.05078-.25293-.05078-.63281-.02539s-.30371-.20215-.45508-.37988c-.10156-.12598-.10156-.25293-.12695-.42969l-.0498-.45508v-.25293l.02441-.6582.02539-.25293-.0498-.50586c0-.10156,0-.17676.02441-.27832l.02539-.27832.02539-.58203-.05078-.30371v-.63184l-.0498-.60742v-.22754l.02539-.25293.02441-.58203c0-.10156,0-.12695.02539-.22754l.05078-.12695-.05078-.7334-.10059-.70898v-1.1123c0-.07617.02539-.12695.02539-.17773l.10059-.55664-.02539-.22754-.0498-.50586v-.35449l-.05078-.60645v-.10156c0-.12695-.02539-.17676,0-.30371l.0752-.53125-.02441-.35449.02441-.55664v-.30371l.07617-.63184-.05078-.30371-.0498-.60742v-1.16309l-.02539-.53223v-.20215l.02539-.25293.10059-.07617c.20215-.20215.37988-.30273.55664-.32812l.60742.0752.3291-.02441.60645-.02539h.20312l.53125.0498.30371-.02441.88477.12598s.30371.20215.45605.37988c.0752.10059.0752.22754.0752.37891l-.02539.45605-.02539.32812.07617.48145v.4043l.02539.58203v.27832l-.05078.68262.07617.3291v.55664l-.02539.27832.02539.37988c0,.15137,0,.30273-.05078.48047l-.02539.02539-.05078.53125.05078.35352-.05078.53125-.0498.25391.02539.50586v.20215l-.02539.22754.0498.53125c0,.12695.02539.20215,0,.3291l-.02441.15137v.86035l.0498.58203.02539.35449-.02539.60645v.83496c0,.10156,0,.15234-.02539.25293l-.0498.15234.02539.48047.0498.35449-.0498.60645.0498.27832-.0752.70898.0752.22754v1.29004l-.0498.35449c0,.17676-.02539.25293-.12695.3291-.10156.0498-.25293.12598-.42969.15137Z"/>
      <path class="cls-1" d="M94.34375,18.89844l-.05078-.02539c-.20215-.10156-.35449-.25293-.45508-.45508l-.20312-.15234c-.15137-.12598-.30371-.25293-.37891-.4043l-.3291-.22754c-.10156-.07617-.22754-.15234-.30371-.25391l-.10156-.12598-.48047-.40527-.22754-.17676-.35449-.3291c-.0498-.02539-.10059-.0752-.12598-.12598l-.10156-.10156-.42969-.4043-.30371-.27832-.53125-.37988-.50586-.48047-.25293-.25293-.50586-.50586-.53125-.43066-.25293-.22754-.40527-.27832c-.05078-.05078-.10156-.07617-.15137-.12598l-.15234-.17773-.53125-.4043-.22754-.22754-.40527-.30371c-.0498-.05078-.12598-.07617-.17676-.15234l-.35449-.4043-.25293-.17773-.20215-.15137-.25293-.20215-.27832-.25293-.50586-.37988-.25293-.22754-.25293.10156.02539.37891v.63281l-.02539.3291-.05078.65723.07617.22754.05078.60742v.3291l-.02539.53125.02539.30371v.63184l.02441.27832v.53125l-.02441.3291-.05078.63281v.25293l-.05078.53125.02539.27832.02539.58203v.07617c0,.12598,0,.20215-.02539.32812l-.02539.15234c-.20215.17676-.45508.22754-.6582.15137l-.53125-.02539-.27832.02539-.58105.02539-.30371-.02539-.63281.05078-.30371-.02539-.42969.02539c-.07617,0-.17773.02539-.25293,0l-.25293-.05078c-.15234-.15137-.22852-.35352-.20312-.58203l-.02539-.60645-.0498-.35449-.05078-.45508v-.35449l.05078-.58203v-.30371l-.02539-.20215c-.02539-.25293,0-.42969.0752-.60742l-.0498-.53125-.02539-.17676c-.02539-.12695-.02539-.17773-.02539-.30371l.02539-.42969.02539-.30371v-.53125c0-.05078.02539-.12695.02539-.20312l.0498-.22754.05078-.58203-.05078-.12598c-.02539-.12695-.0498-.30371-.02539-.45508l.05078-.35449-.02539-.50586c0-.10156,0-.17773.02539-.27832l.02539-.22754.02539-.60742-.02539-.37988-.10059-.50586c-.02539-.10156-.02539-.17676-.02539-.25293v-.4043c0-.10156,0-.12695.02539-.22852l.0498-.27832v-.96094l-.0498-.27832c-.02539-.12598,0-.30371.02441-.42969v-.05078l-.0752-.37988c-.02539-.12598-.02539-.17676-.02539-.30371v-.50586c0-.17676,0-.30371.05078-.42969v-.48047c0-.07617,0-.15234.02539-.25293l.0498-.15234-.0498-.63281v-.37891l-.07617-.53125c0-.05078-.02539-.15234-.02539-.20215v-.12695c.05078-.17676.15137-.30371.20215-.27832l.30371.10156.68359.63184.20215.22754.48047.35449.17676.17773.37988.22754c.12598.0752.22754.12598.30371.20215l.07617.07617.4043.45508.20215.25293.40527.37988.20215.22754.3291.27832c.05078.02539.10059.0752.12598.12598l.15234.17773.22754.15137.25293.15137.20215.15234c.02539.02539.07617.05078.12695.10156l.4043.4043.22754.17676.55664.43066.50586.48047.17773.15137.45508.45605.22754.25293.58203.35449.10156.0752c.02539.02539.0752.02539.12598.07617l.37988.3291.30371.27832.17676.20215.25293.30371.50586.4043.27832.20312.25293-.15234.07617-.4043.02539-.43066c0-.05078.02539-.15137.05078-.20215l.05078-.25293-.07617-.48047-.05078-.27832-.02539-.6582.02539-.22754.05078-.6582-.07617-.27734.05078-.50684.05078-.35352.05078-.63281-.02539-.27832v-.55664l-.02539-.35449.02539-.50586-.02539-.17676c-.02539-.12695-.05078-.20215-.02539-.35449l.05078-.37891s.37891-.53125.60645-.6582c.05078-.02539.12695-.02539.17773-.02539l.58203-.02539.68262.02539.25293-.02539h.50586c.07617,0,.17773,0,.25293.02539l.10156.02539.60742-.07617h.0752c.35449,0,.53125.35449.58203.60742,0,.05078.02539.07617.02539.12695l.02539.50586.05078.3291-.05078.60645v.30371l-.02539.48047-.02539.3291v1.49316l.02539.10059c.02539.12695.02539.30371,0,.43066l-.02539.25293.02539.3291v.58105l.02539.30371v.6582l.02539.22754.02539.3291c.02539.22754-.02539.4043-.10156.55664l-.02539.53125.05078.3291.02539.50586v.32812l.05078.45605c0,.05078.02539.12598.02539.17676v.3291l-.15234.65723.02539.63281.12695.30371v.42969c0,.12695-.02539.20312-.05078.30371l-.05078.17773-.05078.65723c.07617.17773.10156.37988.07617.63281v.17676l-.02539.30371.02539.60742-.02539.27832.02539.50586.02539.35449.02539.37891c.02539.12695,0,.30371-.02539.43066v.25293c0,.10059-.07617.17676-.20215.20215Z"/>
      <path class="cls-1" d="M103.32617.35449l.58105.0498h.25391l.60645-.02441.80957-.05078c.12695,0,.25293.02539.37988.05078l.10156.02441.22754.05078.35352.02539.40527-.05078c.10059,0,.20215,0,.30371.02539l.17676.02539c.27832.15234.48047.3291.53125.53125l.22754.63281.15234.60742.10059.20215.20312.45508.12598.3291.20215.58203.15234.27832.27832.63184.20215.63281.12695.22754.12598.27832c.02539.05078.05078.10156.05078.15234l.02539.15137.12598.22754.20312.53125.22754.35449.20215.55664.07617.35449.22754.53125.17676.37891.25293-.07617.12695-.27832.27832-.53125.30371-.50586.10059-.27832.20312-.30371.25293-.55566.20215-.55664.10059-.27832.17773-.35449.12598-.30371.15234-.22754.22754-.68359.07617-.27832.30371-.65723.4043-.80957.27832-.53125.17676-.20215.25293-.60742.15234-.27832.07617-.15234c.0498-.12598.12598-.22754.17676-.30273l.15137.32812.07617.30371.3291.55664.15137.20215.20312.40527c.0498.12598.10059.22754.12598.3291l.02539.10059.20215.45605.12695.22754.12598.22754.25293.6582.25293.45508c.05078.10059.10156.22754.12695.35449l.02539.0752.25293.43066c.05078.0752.07617.12598.10156.22754l.0498.15137.30371.48047v.02539c.10156.12695.20215.25293.25293.40527l.10156.27832c.02539.10059.05078.17676.05078.25293l.02539.15137.22754.40527c.05078.10059.10059.20215.12598.35449l.02539.02441.15234.30371c.0752.15234.12598.30371.15137.50586l.30371.02539.20215-.20215.22754-.53125.07617-.37988.15234-.42969c.02441-.10156.0752-.22754.15137-.3291l.07617-.0752.15137-.37988c.02539-.05078.07617-.15137.10156-.20215l.10059-.15234.12695-.50586.05078-.17676c.02539-.10156.05078-.15234.0752-.22754l.17773-.43066.15137-.25293.27832-.55664.02539-.27832.20215-.53125.12695-.3291.17676-.4043c.02539-.07617.05078-.12695.07617-.17676l.10156-.15234.12598-.58203.02539-.15137c.02539-.12695.10156-.25293.15137-.35449l.17773-.30371.12598-.17676c.07617-.12695.12695-.17676.22754-.27832.12695-.12598.30371-.15137.48145-.12598l.4043-.02539h.17773l.20215.02539.60742-.02539.22754-.05078.58203.02539h.37891c.15234,0,.30371.02539.43066.0752l.0752.02539.15234-.02539c.12598-.02441.25293-.0498.37891-.02441l.35449.0498c.17676-.02539.35449.07617.42969.22754l-.15137.30371v.05078l-.22754.55664-.07617.3291-.25293.55664-.02539.05078c-.02539.17676-.07617.30273-.15137.45508l-.12695.20215c-.02539.05078-.07617.10156-.12598.15234l-.15234.17676-.20215.50586-.02539.30371-.20215.42969c-.05078.10156-.12695.17773-.17773.25293l-.02539.05078-.25293.53125-.12598.22754-.3291.55664-.10059.3291-.25391.75879-.27832.55664-.15137.25293-.15137.45605c-.05078.10059-.10156.20215-.17773.30371l-.0752.0752-.27832.50586v.27832l-.20312.43066c-.02539.0752-.0752.12598-.10059.17676l-.10156.15234-.20215.53125-.10156.20215-.25293.58203-.15137.30371-.30371.58105-.12695.25293-.22754.35449-.12598.27832-.3291.53125-.02539.22754-.25293.50586-.15234.35449-.0752.25293c-.05078.20215-.15234.37988-.30371.53125l-.22754.63281-.15234.27832-.25293.53125-.07617.30371-.25293.53125-.02539.05078c-.0498.15137-.10059.27832-.20215.4043l-.05078.05078-.15137-.07617-.10156-.10059c-.12598-.15234-.20215-.27832-.27832-.45605l-.12598-.27832c-.07617-.15137-.12695-.30371-.15234-.48047l-.02441-.07617-.27832-.53125-.02539-.05078c-.05078-.0752-.15234-.17676-.17773-.27734l-.15137-.40527-.07617-.35449-.20215-.22754c-.10156-.15137-.17676-.3291-.20215-.50586l-.30371-.48047-.05078-.07617c-.10156-.12598-.20215-.25293-.25293-.4043l-.12695-.30371-.12598-.35449-.27832-.50586-.15234-.3291-.17676-.42969-.15137-.3291-.10156-.22754-.12695-.25293-.10059-.27832-.27832-.45605-.10156-.25293-.17676-.30273-.22754.02441-.20312.35449-.15137.48047c-.02539.07617-.07617.15234-.12598.25293l-.10156.15234-.10156.27832-.02539.07617c-.02539.15137-.10059.27734-.17676.4043l-.07617.12695-.20215.48047-.15137.27832-.25293.4043-.02539.25293-.30371.58203-.15234.22754-.20215.50586c-.02539.10156-.07617.17773-.12598.27832l-.10156.12695-.12695.37891c-.02441.07617-.0498.15234-.10059.25391l-.10156.15137-.17676.58203-.17773.30371-.17676.37891c-.02539.07617-.07617.10156-.12598.17773l-.15234.17676-.25293.48047c-.07617.22754-.17676.37988-.3291.53125l-.0752-.02539-.20312-.25293-.0752-.15137c0-.02539-.05078-.05078-.05078-.07617l-.20215-.53125-.17773-.30371-.22754-.53125-.15137-.25293-.30371-.60742-.22754-.58105-.12695-.25391-.25293-.55566-.10156-.30371-.22754-.60742-.20215-.27832-.17676-.50586-.10156-.25293-.30371-.48047-.15137-.3291-.25293-.48047-.12695-.20312c-.02539-.0752-.05078-.12598-.07617-.20215l-.12598-.45508-.07617-.20312-.25293-.53125-.20215-.20215-.3291-.50586-.07617-.15137c-.02539-.05078-.0752-.12695-.10059-.20312l-.17773-.48047-.0752-.35449-.20312-.53125-.15137-.25293-.22754-.37891c-.05078-.10156-.07617-.17773-.10156-.25293l-.07617-.20312-.17676-.55566-.17676-.20312-.27832-.53125-.15234-.30371-.22754-.42969c-.02539-.05078-.07617-.15137-.10059-.20215l-.17773-.55664-.15137-.27832-.17773-.58203-.0752-.30371-.27832-.53125-.25293-.20215-.05078-.07617c-.12695-.25293-.17676-.45508-.15234-.60742-.0498-.17676-.0498-.32812.02539-.4043.07617-.07617.22852-.17676.45605-.20215Z"/>
      <path class="cls-1" d="M135.33008,18.56934l-.10156.02539h-.55664l-.30371.07617-.63184.02539-.20312.02539h-.22754l-.48047-.05078-.25293-.05078-.63281-.02539s-.30371-.20215-.45508-.37988c-.10156-.12598-.10156-.25293-.12695-.42969l-.0498-.45508v-.25293l.02441-.6582.02539-.25293-.0498-.50586c0-.10156,0-.17676.02441-.27832l.02539-.27832.02539-.58203-.05078-.30371v-.63184l-.0498-.60742v-.22754l.02539-.25293.02441-.58203c0-.10156,0-.12695.02539-.22754l.05078-.12695-.05078-.7334-.10059-.70898v-1.1123c0-.07617.02539-.12695.02539-.17773l.10059-.55664-.02539-.22754-.0498-.50586v-.35449l-.05078-.60645v-.10156c0-.12695-.02539-.17676,0-.30371l.0752-.53125-.02441-.35449.02441-.55664v-.30371l.07617-.63184-.05078-.30371-.0498-.60742v-1.16309l-.02539-.53223v-.20215l.02539-.25293.10059-.07617c.20215-.20215.37988-.30273.55664-.32812l.60742.0752.3291-.02441.60645-.02539h.20312l.53125.0498.30371-.02441.88477.12598s.30371.20215.45605.37988c.0752.10059.0752.22754.0752.37891l-.02539.45605-.02539.32812.07617.48145v.4043l.02539.58203v.27832l-.05078.68262.07617.3291v.55664l-.02539.27832.02539.37988c0,.15137,0,.30273-.05078.48047l-.02539.02539-.05078.53125.05078.35352-.05078.53125-.0498.25391.02539.50586v.20215l-.02539.22754.0498.53125c0,.12695.02539.20215,0,.3291l-.02441.15137v.86035l.0498.58203.02539.35449-.02539.60645v.83496c0,.10156,0,.15234-.02539.25293l-.0498.15234.02539.48047.0498.35449-.0498.60645.0498.27832-.0752.70898.0752.22754v1.29004l-.0498.35449c0,.17676-.02539.25293-.12695.3291-.10156.0498-.25293.12598-.42969.15137Z"/>
      <path class="cls-1" d="M152.8125,4.37695l-.3291-.02539-.58203-.02539-.30371-.05078-.63184-.02539-.27832.07617-.37988.02539c-.10156,0-.25293.02539-.35449,0l-.0752-.02539h-.58203l-.40527.02539-.4043.35352.02539.25391-.07617.65723.05078.22754.02539.43066c0,.12598-.02539.30371-.05078.42969l-.02539.07617.05078.45508v.22754l-.02539.15234-.10156.58203v.91016l.12695.22754.02539.53125v.22852l-.02539.17676.02539.45508v.20215l-.02539.25293.02539.58203v.35449l-.05078.58203.02539.02539c.05078.20215.05078.3291.02539.53125l-.05078.3291v.30273l-.02539.58203v.30371l.02539.20215c.02539.25293,0,.40527-.07617.55664v.60742l.07617.20215v.50586c0,.07617-.02539.20312-.05078.27832l-.05078.20312.07617.58203s-.02539.0498-.05078.12598c-.22754.42969-.55664.55664-.7334.53125l-.58203.05078c-.12598.05078-.30371.07617-.48047.05078l-.35449-.02539-.27832-.05078-.53125-.05078h-.37891l-.40527.05078c-.10156.02539-.25293.02539-.35449,0l-.10059-.02539c-.22754-.20215-.35449-.4043-.37988-.60742v-.0498l-.02539-.60742.02539-.25293-.02539-.48047c0-.07617.02539-.15234.02539-.22852l.05078-.22754-.02539-.55664.05078-.30371-.05078-.60645v-.25293l.02539-.30371-.07617-.27832v-1.24023l-.02539-.42969c0-.07617,0-.20215.02539-.27832l.02539-.12695.05078-.58105v-.27832l-.10156-.58203v-.07617c-.02539-.10156-.02539-.20215-.02539-.30371l.02539-.50586v-.80957c0-.05078.02539-.15137.02539-.20215l.02539-.20215.05078-.53223v-.32812l.02539-.78418-.02539-.6582-.05078-.30371-.02539-.63184-.02539-.3291-.25293-.27832-.22754-.02539h-.25293l-.58203-.02539-.0752.02539c-.15234.05078-.27832.05078-.43066.05078h-.15137c-.07617,0-.15234-.02539-.22852-.05078l-.15137-.05078-.27832.02539-.60742-.05078-.27832.07617-.53125.02539h-.25293l-.12598-.02539c-.20215-.15234-.35449-.3291-.37988-.48047l.07617-.27832-.10156-.55664c0-.07617-.02539-.12695-.02539-.22754l.02539-.22852-.02539-.53125-.02539-.17676c-.02441-.15137-.02441-.22754,0-.37988l.02539-.27832c0-.10059.02539-.15137.05078-.22754l.07617-.27832c.22754-.22754.45508-.32812.63281-.30273l.4043-.02539c.10156,0,.20215-.02539.30371,0l.22754.0498.53125-.02441.3291.02441h.48047l.30371-.0752h.35449c.12598,0,.27832,0,.4043.05078l.17676.0498.50684.02539.37891-.10059h.63281l1.66992.12598.35352-.07617.55664.05078.3291.05078.48047-.02539.15234-.05078c.15137-.0498.3291-.0752.50586-.0498l.30371.02441.35352.02539.53125-.02539.3291-.02441.60742.02441.30371-.02441.63281.02441h.75879s.60645.43066.70801.68359v.12598l.02539.50684.05078.32812.05078.43066c0,.10059.02539.20215,0,.30371l-.02539.0752-.02539.55664v.30371c.02539.20215-.02539.3291-.12695.43066-.10059.10059-.25293.17676-.4043.22754Z"/>
      <path class="cls-1" d="M171.60938,18.59473l-.58203.07617-.17676.02539c-.10156,0-.22754,0-.3291-.02539l-.3291-.07617-.25293.05078-.55664-.07617-.35352.02539h-.43066c-.12598,0-.22754,0-.35449-.05078l-.15137-.05078c-.15137-.10059-.27832-.22754-.35449-.32812-.10059-.17773-.10059-.35449-.0752-.58203l.0498-.35449-.02441-.22754.02441-.58203-.0498-.27832-.02539-.4043v-.22852l.05078-.27832.02441-.58105.02539-.27832-.10059-.63281v-.22754l.05078-.55664-.02539-.30371.0498-.63281.02539-.32812-.35352-.35449-.35449-.02539-.55664-.10156-.3291.05078-.22754-.02539-.45508.02539c-.05078,0-.15234-.02539-.20215-.02539l-.22852-.02539-.53125.02539-.0752.02539c-.15234.05078-.27832.05078-.40527.05078l-.4043-.02539-.3291.02539-.70898-.05078-.25293.02539h-.88477l-.43066.3291.02539.30371-.05078.58203-.0498.35352.0498.30371c.02539.17773.05078.35449,0,.53125l-.02539.05078.07617.70801-.02539.30371-.05078.58203.07617.22754-.05078.58203.02539.25293-.02539.55664v.35449l.05078.65723c-.02539,0-.35352.50586-.58203.60742-.02539.02539-.10059,0-.15137,0l-.58203-.05078-.22754.05078-.60742-.05078-.37891.02539h-.55664l-.37988.05078h-.48047c-.07617,0-.15234,0-.22754-.02539l-.20312-.05078v-.02539c-.12598-.17676-.25293-.35352-.27832-.58105v-.17773l.05078-.48047-.05078-.25293-.0498-.55664v-.27832l-.02539-.60742-.02539-.4043v-.60742l.02539-.22754-.02539-.27832c0-.17676.05078-.3291.10059-.50586v-.02539l-.0498-.48047c0-.12695,0-.25293.02539-.37988l.02441-.10156v-.60645l-.02441-.27832-.02539-.37988c0-.07617.02539-.15137.02539-.22754l.02441-.22754.07617-.22754.02539-.53125-.10156-.3291-.0498-.6582-.02539-.15137v-.20215l.05078-.40527-.02539-.27832.02539-.63281-.05078-.30273.0752-.60742.02539-.30371-.0498-.45508c0-.10156.02441-.17773.02441-.25293l.02539-.22852.05078-.53125-.02539-.02539c-.0752-.20215-.10059-.35352-.0752-.55566l.0498-.25391-.02539-.4043.05078-.58203.02539-.3291.02539-.50586-.10156-.3291v-.45508c0-.07617.02539-.15137.02539-.20215l.05078-.27832.07617-.10156c.15137-.15137.35449-.27832.53125-.32812h.02539l.63184-.02539.27832-.02539.6582.05078.70801.02441.25293-.02441.43066.02441c.05078,0,.15137,0,.20215.02539l.17676.05078s.25391.17676.37988.35449c.12695.15137.12695.3291.15137.50586l.05078.30371.02539.3291v.91016l-.07617.58203.02539.68359v.27734l-.02539.6582-.0498.27832.10059.70801.05078.60742.07617.3291.30371.27832.25293.10156h.65723l.3291-.07617.53125.02539c.07617,0,.15234.02539.22754.05078l.20312.02441.63184.05078.25293.02539.48047-.02539c.07617,0,.15234-.02539.25391,0l.17676.02539h.55664l.35352-.02539h.6582l.20215-.05078.3291-.02441.22754-.35449-.02539-.27832.02539-.68359.05078-.63184-.05078-.30371-.05078-.63281v-.30371l.02539-.70801v-.6582l-.02539-.0752c-.02441-.15234-.0498-.30371-.02441-.45605l.0498-.27832v-.32812l.05078-.53125s.30371-.45605.53125-.60742c.05078-.05078.12695-.05078.20215-.07617l.25391-.05078c.10059-.02539.22754-.02539.32812-.02539h.78418l1.69531.05078c.12695-.05078.3291-.02539.50586.02539.17773.17676.25293.37988.22754.58203v.70801l.05078.25293.07617.50684c.02539.10059.02539.17676.02539.30273v.05078l-.07617.58203-.02539.30371v.70801l.05078.30371-.02539.6582-.02539.25293.02539.45508c0,.07617,0,.20215-.02539.27832v.12695l-.02539.55664v.25293l.02539.53125v1.03711l.02539.20215-.05078.60742v.3291l-.05078.60645-.02441.27832v.93652l.0752.58203.05078.32812v.37988c0,.17676,0,.35449-.07617.53125v.58203l.02539.30371.05078.58203v.10059c.02539.15234.02539.25293,0,.40527l-.05078.4043.05078.35449-.02539.37988c0,.15137-.05078.27832-.10059.42969l.02441.48047c0,.17773,0,.30371-.0498.45605l-.02539.0498-.15234.20312c-.10059.10059-.25293.15137-.45508.15137Z"/>
      <path class="cls-1" d="M185.70215,18.87305l-.60742-.02539h-.12598c-.15234.02539-.27832.02539-.43066-.02539l-.4043-.07617-.30371-.0498-.6582-.17773-.30371-.0752-.35352-.12695c-.15234-.05078-.27832-.10156-.40527-.20215l-.10059-.07617-.15234-.25293c-.07617-.15137-.15137-.25293-.17676-.42969v-.70898l.02539-.12598v-.55664l-.05078-.22754.02539-.55664-.05078-.30371.07617-.55664s.15137-.17773.30371-.30371c.15137-.12695.35352-.07617.53125.02539l.27832.15137.32812.07617.3291.10156c.07617.02539.17676.0498.25293.10059l.17773.07617.55566.10156.37988.0498.63281.07617.27832.02539.35352.10156.30371.02539.58203-.05078h.27832l.3291-.05078h.22754l.35449-.02539.53125-.17676.25293-.10156.3291-.48047.0498-.27832.02539-.22754v-.35449l-.17676-.45508-.25293-.20312-.40527-.27734-.22754-.20312-.50586-.10059c-.07617-.02539-.15137-.05078-.20215-.07617l-.22754-.07617-.50586-.20215-.3291-.12695-.05078-.02441c-.12695-.02539-.25293-.05078-.35449-.12695l-.10059-.07617-.15234-.02539c-.10059-.02539-.22754-.0752-.3291-.15137l-.32812-.17676-.27832-.12695-.55664-.27832-.27832-.20215-.40527-.25293c-.0752-.05078-.15137-.10156-.22754-.15234l-.10156-.10059-.35352-.25293c-.10156-.07617-.20215-.12695-.27832-.22852l-.05078-.0752-.17676-.17773c-.12695-.15137-.22754-.27832-.27832-.45508-.15234-.10059-.30371-.27832-.43066-.55664v-.02539c-.02539-.0752-.0752-.15137-.0752-.22754l-.02539-.17676-.12695-.53125-.07617-.27832c0-.05078-.02441-.10156-.02441-.17773l-.02539-.48047-.07617-.30371v-.32812l.02539-.30371-.02539-.27832.02539-.22754c.02539-.25391.10059-.40527.20215-.55664l.17676-.50586.10156-.35449.22754-.48047c.02539-.07617.07617-.10156.10156-.15234l.10059-.15137.25391-.3291c.0752-.07617.17676-.15137.25293-.22754l.0752-.07617.37988-.27832c.05078-.02539.10059-.07617.15137-.10156l.22754-.12598.50684-.27832.0752-.07617c.10156-.0752.25293-.12598.37988-.17676l.15137-.02539.10156-.07617c.10156-.0752.20215-.12598.3291-.17676l.10059-.05078.53125-.15137.37988-.07617.53125-.12695.20215-.0498c.07617-.02539.17773-.02539.25293-.02539h.37988l.35449.02539h.32812l.02539-.02539c.12695-.02539.25293-.02539.37988,0l.10156.02539.7334.0498.53125.02539.35449.05078.35352.05078c.07617.02539.15234.02539.22754.05078l.20312.07617.55664.12598.25293.05078.30371.05078c.17676.02539.32812.10059.48047.20215l.17676.27832c.07617.10059.15137.22754.17676.35449l.02539.12598-.02539.58203v1.11328c0,.05078-.02539.15137-.02539.20215l-.02441.22754.02441.6582s-.10059.17676-.20215.30371c-.12598.12598-.27832.17676-.42969.17676-.10156,0-.20215-.02539-.30371-.05078l-.27832-.07617c-.05078-.02441-.12695-.0498-.17676-.0752l-.20312-.12695-.50586-.22754-.32812.02539-.3291-.07617-.27832.05078-.30371-.02539c-.02539,0-.02539-.02539-.05078-.02539l-.55664-.05078-.27832-.02441h-.02539c-.17676.0498-.35352.02441-.53125,0h-.37891l-.53125.0498-.22852.05078-.55664.12695-.27734.20215-.20312.37988-.02539.35352.07617.30371-.02539.22754.27832.50586.17676.15234.43066.35449.27832.12598.25293.15137.02539.02539c.12598.02539.27832.07617.4043.15234l.07617.02539.53125.30371.27832.0752.25293.12695h.02539l.27832.15137.25293.20312.50586.17676.12695.02539c.12598.02539.25293.05078.37891.12598l.35449.17773.17676.10059c.05078.02539.10156.05078.15234.10156l.4043.30371.22754.20215.58203.45508.22754.20312.25293.25293c.12695.12598.20312.22754.27832.35352l.02539.07617.20312.27832c.0752.12695.15137.25293.17676.42969l.12695.60742c.10059.12695.15137.30371.17676.53125l.05078.27832.02539.35449.0498.35449v.35352l-.02539.27832-.02441.50586c0,.05078-.02539.15234-.02539.20312l-.05078.17676-.22754.55664-.07617.17676c-.02539.10156-.10156.20215-.15137.27832l-.17773.25293c-.02539.05078-.10059.10156-.15137.15234l-.10156.10059-.4043.45605v.02539c-.07617.10059-.20312.17676-.30371.25293l-.30371.20215-.15234.20215-.10059.07617c-.05078.05078-.12695.07617-.22754.12598l-.43066.20312-.83496.27832c-.12598.15137-.35352.22754-.65723.27832-.05078.02441-.15234.02441-.25293.02441h-.20312l-.55566.07617-.3291.10156c-.07617.02539-.12695.02539-.20312.02539l-.30273.0498c-.12695.02539-.25293,0-.37988-.02441l-.12598-.02539-.30371.02539-.3291-.02539h-.25293l-.6582-.05078-.17676-.02539Z"/>
      <path class="cls-1" d="M202.27344,13.12988l-.05078.3291.02539.63281v.37891l-.02539.55664.05078.37988-.0752.63184v.83496c0,.10156,0,.12695-.02539.22852l-.02539.17676.0752.58203v.0752c0,.43066-.45508.58203-.63184.58203h-.02539l-.63281.05078-.20215.05078c-.10156.02539-.17676,0-.27832,0l-.55664-.02539-.53125.05078c-.10156,0-.22754,0-.3291-.02539h-.10059l-.53125-.02539c-.07617,0-.20312,0-.27832-.02539l-.07617-.02539c-.25293-.25293-.37988-.45508-.37988-.63184l-.02539-.48145c0-.10059,0-.22754.02539-.32812l.05078-.22852-.10059-.50586-.02539-.22754v-.65723l-.02539-.25391-.02539-.58105.05078-.37988.0498-.63281-.0752-.32812.02539-.43066c0-.07617,0-.17676.02539-.25293l.02441-.15137v-.55664l-.0752-.37988v-.53125l-.02539-.12598c-.02539-.17773,0-.30371.02539-.45605l-.07617-.27832v-.4043l.07617-.53125.05078-.27832.0752-.68359-.02539-.32812-.10059-.60742v-.10156c0-.07617,0-.20215.02539-.27832l.0498-.4043c-.02441-.17773-.02441-.3291,0-.50586l.07617-.3291v-.37988l.02539-.58203v-.4043l-.02539-.48047-.07617-.27832-.0498-.63281-.02539-.27832v-.17676l.05078-.50586v-.27832l.0498-.55664s.17773-.27832.35449-.48145c.12695-.15137.3291-.17676.53125-.20215l.17676-.02539c.05078,0,.15234-.02539.22852-.02539h.12598l.48047-.0498c.12695-.02539.25293-.02539.37988,0l.07617.02539.32812-.05078c.15234-.02539.3291-.02539.48145.02539h.02539l.58105.02539h.3291l.53125.02441.30371.02539.55664.07617.3291.02539.10059-.02539c.15234-.05078.27832-.02539.40527-.02539h.07617l.30371-.02539.55566.02539.27832.05078.53125.10156.27832.02441.50684.05078c.10059,0,.20215.02539.30273.05078l.58203.20215c.10156.02539.22754.07617.3291.15234l.02539.02539.50586.35352h.02539c.15137.05078.30371.12695.42969.22852l.07617.0498.3291.37988.17676.12598.37988.37988.07617.05078c.12598.10059.25293.20215.35352.3291l.22754.35352.07617.15234c.02539.05078.07617.12598.10156.17676l.20215.48047.12695.35449.10059.35449c.05078.15137.07617.3291.07617.45508l.07617.42969c.02441.17773.02441.30371,0,.45605l-.02539.37891-.07617.27832.07617.27832-.10156.6582-.07617.30371-.15137.58203v.0752c0,.15234-.05078.3291-.12695.45605l-.10059.25293-.22754.30371-.37988.48047-.07617.12598c-.05078.07617-.10059.10156-.17676.17773l-.37988.35352-.58203.48145c-.0498.0498-.12598.12598-.17676.15137l-.20215.10156-.68359.42969c-.0498.05078-.12598.07617-.17676.10156l-.25293.10059c-.10156.05078-.17676.05078-.25293.07617l-.20215.05078-.30371.10059c-.15234.05078-.27832.07617-.43066.07617l-.32812.05078-.63281.15137c-.10156.02539-.22754.02539-.3291.02539h-.45508l-.35449-.05078-.30371.05078-.30371-.02539h-.10059l-.58203-.10059-.35449.4043ZM202.62793,4.22461l-.10156-.02539-.27832.3291v1.03711l.05078.35449.02539.20215c0,.20215-.02539.37988-.10156.53125l-.02441.05078.02441.55664-.02441.3291.0752.50586c0,.07617.02539.12598.02539.20215v.25293l.35449.40527.27832.02539.45508-.05078h.22754l.15234.02539.3291-.12695.27832-.05078.25293-.0498.55566-.17773.27832-.10059.53223-.37988.12598-.15137.22754-.58203v-.22754l-.05078-.35449.02539-.27832v-.50586l-.17676-.58203-.20215-.25293-.45605-.35449-.20215-.17676-.20215-.07617-.53125-.17676-.25293-.02539h-.10156c-.12598,0-.25293,0-.37891-.05078l-.15234-.05078-.25293.07617-.45508-.02539c-.10156,0-.22754-.02539-.3291-.05078Z"/>
      <path class="cls-1" d="M213.65918,8.17188c0-.07617,0-.20312.02539-.27832l.12695-.40527.05078-.27832.17676-.58203.07617-.32812.12598-.35449c.02539-.10156.10156-.17676.15234-.27832l.12598-.17676.22754-.60742.05078-.17773.20215-.35352c.05078-.10156.10156-.17773.17773-.25293l.12598-.12695.27832-.3291c.05078-.0498.07617-.0752.12695-.12598l.10059-.07617.22754-.25293.30371-.35449.17773-.17676.48047-.45508.02539-.05078c.07617-.10156.20215-.20215.30371-.27832l.37891-.25293.07617-.07617c.07617-.07617.17676-.12598.27832-.17676l.27832-.12695c.07617-.05078.15137-.05078.22754-.0752l.17676-.05078.55664-.20215.22852-.07617.50586-.27832.12598-.07617c.05078-.02539.12695-.02539.17773-.05078l.32812-.10059c.07617-.02539.17773-.07617.25293-.07617h.12695l.25293-.05078.37988-.05078c.10059-.02539.17676-.02539.27832-.02539l.15137.02539h.55664l.3291-.02539h.05078c.10059-.02441.22754-.0498.35352-.0498l.15234.02539.25293-.10156.55664.02539.32812.05078.6582.15137.30371.02539.35449.12695c.17676.0498.32812.12598.48047.22754l.50586.12598c.05078.02539.15137.02539.20215.05078l.15234.07617.25293.12598c.15137.07617.27832.15234.37891.27832l.07617.05078.50586.30371.22754.05078.40527.22754c.0752.05078.15137.10156.22754.17676l.10156.10156.35352.37891c.05078.07617.07617.12695.12695.17773l.10059.12598.27832.25293c.10156.10156.20312.20312.27832.35449l.02539.05078.20215.30371.05078.0752c.10156.10156.20312.20312.25293.3291l.05078.05078.22754.30371c.10156.12598.17773.27832.22754.42969l.05078.07617.30371.42969.07617.10156c.05078.10156.10059.25293.12598.35449l.10156.27832.07617.25293.12598.53125c.10156.17676.12695.3291.15234.50586l.15137.58203.02539.15137c.02539.07617.02539.17773.02539.25293v.22754c0,.12695,0,.20312-.02539.30371v.07617l-.07617.30371v.35449l-.0498.27832.02441.55664v.12598c0,.12695,0,.22754-.02441.35449l-.07617.42969-.02539.35449-.15234.53125-.10059.35449-.25293.60645-.30371.58203-.17676.30371-.3291.58203-.07617.07617c-.05078.0752-.10156.15137-.15137.22754l-.30371.3291-.22754.20215-.40527.50586-.02539.02539c-.07617.15137-.17676.30371-.30371.42969l-.17676.17773-.12695.12598c-.10059.10156-.20215.15234-.32812.22754l-.35449.17773-.25293.17676-.43066.25293c-.0752.05078-.15137.05078-.20215.07617l-.17676.0752-.55664.25391-.25293.0752-.55664.17773-.30371.0752-.4043.12695c-.10156.02539-.22852.05078-.3291.05078h-.05078l-.63281.0752-.27832.07617-.55664.05078h-.20215l-.15137-.02539-.17773.02539c-.12598.02539-.27832,0-.4043-.02539l-.10156-.02539-.25293.07617h-.4043c-.10156,0-.20312,0-.30371-.02539l-.17773-.05078-.32812-.05078c-.15234-.02539-.30371-.02539-.43066-.10059l-.0752-.05078-.53125-.15234-.27832-.12598-.70898-.20215-.53125-.20312c-.10059-.0498-.17676-.0752-.25293-.12598l-.07617-.07617-.63184-.3291-.22754-.12598-.35449-.20215c-.12695-.07617-.25293-.17773-.35449-.27832v-.02539l-.4043-.25293c-.07617-.05078-.12695-.07617-.20312-.15234l-.12598-.15137-.27832-.50586-.20215-.22852-.27832-.45508-.07617-.05078c-.12695-.10059-.27832-.22754-.35449-.4043l-.15137-.3291-.15234-.20215-.20215-.53125-.07617-.07617c-.0752-.10156-.15137-.25293-.20215-.37988l-.07617-.27832c-.02441-.0498-.0498-.15137-.0498-.22754v-.12598l-.10156-.60742-.07617-.3291-.10059-.48047c-.02539-.07617-.05078-.15137-.05078-.22754l.02539-.22754-.12695-.50586c0-.05078-.02539-.15234-.02539-.20312v-.15137l.05078-.27832-.05078-.27832.02539-.27832v-.70801ZM218.54199,10.87891l.15234.65723.0752.30371.22754.40527c.02539.0752.05078.12598.07617.22754l.05078.17676.40527.48047.27832.17773.4043.35352.22754.12695.48047.3291.27832.20215.48145.15137.37891.12695.53125.07617.3291.02441.27832-.0498.30371.02539h.27832l.65723-.05078.27832-.17773.60742-.25293.20215-.15137.55664-.22754.15234-.20312.42969-.37891.17676-.22754.6582-.70898.20215-.53125.05078-.22754.20215-.53125.10156-.3291.17676-.55664-.02539-.30273c-.02539-.15234-.0498-.35449,0-.58203l-.10059-.3291-.02539-.60742-.12695-.27832-.15137-.42969c-.02539-.10156-.07617-.17773-.07617-.27832l-.02539-.17773-.27832-.53125-.20215-.22754-.35449-.42969-.12598-.15234-.45508-.42969-.25391-.25293-.53125-.35449-.27832-.15137-.53125-.12695-.27832-.0752-.53125-.02539-.35352-.05078-.22754.05078-.35449-.02539-.35449.02539-.53125.0498-.30371.07617-.53125.22754-.27832.17773-.50586.3291-.17676.15137-.48047.35449-.12695.17676-.4043.42969-.15234.35449-.25293.50586-.15137.27832-.20312.58203-.0498.30371-.12695.63281v.27734l.07617.27832.02539.30371.02539.25293v.58203l.10059.17773Z"/>
      <path class="cls-1" d="M248.62402,4.37695l-.3291-.02539-.58203-.02539-.30371-.05078-.63184-.02539-.27832.07617-.37988.02539c-.10156,0-.25293.02539-.35449,0l-.0752-.02539h-.58203l-.40527.02539-.4043.35352.02539.25391-.07617.65723.05078.22754.02539.43066c0,.12598-.02539.30371-.05078.42969l-.02539.07617.05078.45508v.22754l-.02539.15234-.10156.58203v.91016l.12695.22754.02539.53125v.22852l-.02539.17676.02539.45508v.20215l-.02539.25293.02539.58203v.35449l-.05078.58203.02539.02539c.05078.20215.05078.3291.02539.53125l-.05078.3291v.30273l-.02539.58203v.30371l.02539.20215c.02539.25293,0,.40527-.07617.55664v.60742l.07617.20215v.50586c0,.07617-.02539.20312-.05078.27832l-.05078.20312.07617.58203s-.02539.0498-.05078.12598c-.22754.42969-.55664.55664-.7334.53125l-.58203.05078c-.12598.05078-.30371.07617-.48047.05078l-.35449-.02539-.27832-.05078-.53125-.05078h-.37891l-.40527.05078c-.10156.02539-.25293.02539-.35449,0l-.10059-.02539c-.22754-.20215-.35449-.4043-.37988-.60742v-.0498l-.02539-.60742.02539-.25293-.02539-.48047c0-.07617.02539-.15234.02539-.22852l.05078-.22754-.02539-.55664.05078-.30371-.05078-.60645v-.25293l.02539-.30371-.07617-.27832v-1.24023l-.02539-.42969c0-.07617,0-.20215.02539-.27832l.02539-.12695.05078-.58105v-.27832l-.10156-.58203v-.07617c-.02539-.10156-.02539-.20215-.02539-.30371l.02539-.50586v-.80957c0-.05078.02539-.15137.02539-.20215l.02539-.20215.05078-.53223v-.32812l.02539-.78418-.02539-.6582-.05078-.30371-.02539-.63184-.02539-.3291-.25293-.27832-.22754-.02539h-.25293l-.58203-.02539-.07617.02539c-.15137.05078-.27734.05078-.42969.05078h-.15137c-.07617,0-.15234-.02539-.22754-.05078l-.15234-.05078-.27832.02539-.60742-.05078-.27832.07617-.53125.02539h-.25293l-.12598-.02539c-.20312-.15234-.35449-.3291-.37988-.48047l.07617-.27832-.10156-.55664c0-.07617-.02539-.12695-.02539-.22754l.02539-.22852-.02539-.53125-.02539-.17676c-.02441-.15137-.02441-.22754,0-.37988l.02539-.27832c0-.10059.02539-.15137.05078-.22754l.07617-.27832c.22754-.22754.45508-.32812.63281-.30273l.4043-.02539c.10156,0,.20215-.02539.30371,0l.22754.0498.53125-.02441.3291.02441h.48047l.30371-.0752h.35449c.12598,0,.27832,0,.4043.05078l.17773.0498.50586.02539.37891-.10059h.63281l1.66992.12598.35352-.07617.55664.05078.3291.05078.48047-.02539.15234-.05078c.15137-.0498.3291-.0752.50586-.0498l.30371.02441.35352.02539.53125-.02539.3291-.02441.60742.02441.30371-.02441.63281.02441h.75879s.60645.43066.70801.68359v.12598l.02539.50684.05078.32812.05078.43066c0,.10059.02539.20215,0,.30371l-.02539.0752-.02539.55664v.30371c.02539.20215-.02539.3291-.12695.43066-.10059.10059-.25293.17676-.4043.22754Z"/>
      <path class="cls-1" d="M256.18945,18.56934l-.10156.02539h-.55664l-.30371.07617-.63184.02539-.20312.02539h-.22754l-.48047-.05078-.25293-.05078-.63281-.02539s-.30371-.20215-.45508-.37988c-.10156-.12598-.10156-.25293-.12695-.42969l-.0498-.45508v-.25293l.02441-.6582.02539-.25293-.0498-.50586c0-.10156,0-.17676.02441-.27832l.02539-.27832.02539-.58203-.05078-.30371v-.63184l-.0498-.60742v-.22754l.02539-.25293.02441-.58203c0-.10156,0-.12695.02539-.22754l.05078-.12695-.05078-.7334-.10059-.70898v-1.1123c0-.07617.02539-.12695.02539-.17773l.10059-.55664-.02539-.22754-.0498-.50586v-.35449l-.05078-.60645v-.10156c0-.12695-.02539-.17676,0-.30371l.0752-.53125-.02441-.35449.02441-.55664v-.30371l.07617-.63184-.05078-.30371-.0498-.60742v-1.16309l-.02539-.53223v-.20215l.02539-.25293.10059-.07617c.20215-.20215.37988-.30273.55664-.32812l.60742.0752.3291-.02441.60645-.02539h.20312l.53125.0498.30371-.02441.88477.12598s.30371.20215.45605.37988c.0752.10059.0752.22754.0752.37891l-.02539.45605-.02539.32812.07617.48145v.4043l.02539.58203v.27832l-.05078.68262.07617.3291v.55664l-.02539.27832.02539.37988c0,.15137,0,.30273-.05078.48047l-.02539.02539-.05078.53125.05078.35352-.05078.53125-.0498.25391.02539.50586v.20215l-.02539.22754.0498.53125c0,.12695.02539.20215,0,.3291l-.02441.15137v.86035l.0498.58203.02539.35449-.02539.60645v.83496c0,.10156,0,.15234-.02539.25293l-.0498.15234.02539.48047.0498.35449-.0498.60645.0498.27832-.0752.70898.0752.22754v1.29004l-.0498.35449c0,.17676-.02539.25293-.12695.3291-.10156.0498-.25293.12598-.42969.15137Z"/>
      <path class="cls-1" d="M271.9248,4.32617l-.42969.05078c-.10156.02539-.25293.02539-.35449,0l-.17676-.02539-.75879-.12695-.63281.05078-.35449.02539-.48047.05078c-.15137.02539-.27832.02539-.42969-.02539h-.05078l-.58203.05078h-.3291l-.55664.02539h-.20215c-.05078,0-.12695-.02539-.17676-.02539h-.10156l-.35449.30371v.32812l-.0498.60742.0498.42969c.02539.17773.02539.35449-.02539.50684v.50586l.10156.3291.30371.35352.25293.02539.6582.02539.30273.02539.63281.02539h.3291l.35449-.07617.27832-.02539.32812-.02539h.6582c.15137-.02539.30371-.02539.45508.02539l.12695.02539.22754-.05078c.20215.02539.4043.12695.60742.30371l.0498.05078-.02441.35449v.58203l.0498.37891v.45508c0,.12695,0,.20312-.02539.3291l-.02441.12695.02441.45508v.25293l-.0498.20215-.15234.15234c-.15137.10059-.3291.17676-.50586.22754h-.02539l-.68262-.10156-.27832.07617-.58203-.02539-.22754.07617-.60742.02539-.37988.07617h-.58105l-.91113-.07617-.3291-.05078-.27832.3291-.07617.30371v.55664l.02539.30273.10156.60742v.37988l-.02539.53125-.05078.25293-.05078.60742.02539.25293.02539.55664v.15137c0,.10156.02539.22754,0,.3291l-.10059.45508v.6582l-.05078.30371c-.02539.12598-.10156.30273-.27832.42969l-.25293.02539h-.20215l-.50684-.05078-.25293-.02539-.55664.10156-.10059.02539c-.10156.02539-.20215.05078-.30371.05078l-.45508-.02539-.17773.02539c-.0752,0-.15137,0-.22754-.02539l-.48047-.07617c-.15234,0-.37988-.12695-.58203-.27832l-.05078-.02539-.0752-.25293-.02539-.30371-.02539-.27832c0-.12598,0-.27832.02539-.37891l.02539-.12695-.05078-.53125v-.37988l.05078-.45508v-1.29004l-.05078-.37988c-.02539-.20215,0-.4043.0752-.60645l.02539-.53223-.02539-.25293v-.60645l-.02441-.20312c-.02539-.15137-.05078-.27832-.05078-.4043l.05078-.3291-.02539-.10156c-.02539-.17676,0-.30273.0498-.48047l.07617-.25293-.05078-.3291.02539-.58105-.0752-.35449.02441-.55664-.0498-.3291-.05078-.55664-.02539-.15137c0-.05078.02539-.15234.02539-.20215l.07617-.55664-.05078-.30371.10059-.58203-.02539-.27832v-.60742l-.02441-.30371-.02539-.45508c0-.10156.02539-.22754.0498-.3291l.02539-.15137-.10059-.60742-.02539-.22754v-.17676l.05078-.43066-.05078-.3291.02539-.63184c0-.05078.02539-.10156.05078-.17773.0752-.30371.32812-.45508.53125-.53125.0752,0,.15137-.02539.20215-.02539l.42969-.02441.3291-.02539h.4043c.10156,0,.22852.02539.3291.0498l.12695.05078.58203-.02539.35352-.0498.55664-.02539.25293.02539h.55664l.3291-.02539h.48047c.07617,0,.15234,0,.22754.02539l.22852.02441.68262-.02441.63281.0498.25293-.02539.60742.05078.22754-.02539.32812.02539h.3291l.27832-.05078.68359.05078.63184.07617h.07617c.42969,0,.60742.42969.63281.63281l.0752.55664c0,.0752.02539.12598.02539.22754l-.02539.17676.07617.45508v.43066l-.05078.53125c0,.07617-.02539.12598-.0498.20215l-.07617.22754-.17773.17773c-.12598.12598-.30273.17676-.48047.17676Z"/>
      <path class="cls-1" d="M274.15234.4043l.32812-.0498c.12695-.02539.27832,0,.40527.02539l.05078.02441.35352-.0498h.37988c.07617,0,.20215,0,.27832.02539l.50586.0752.30371.02539.55664.02539.27832-.02539.35352-.02539c.17773-.02539.35449.02539.53223.07617.25293.10156.45508.25293.58105.45508l.3291.53125.17676.35449.27832.50586.17773.20215.20215.45605c.02539.0752.07617.12598.10156.22754l.05078.22754.20215.42969c.02539.07617.0752.17773.10059.25293l.02539.20312.3291.48047.17676.20215.22852.35449c.0498.10059.10059.17676.12598.25293l.02539.07617.12695.15137c.0498.07617.12598.17676.17676.25293l.17676.37988.10156.27832.35449.0752.20215-.35352.35352-.58203.12695-.25293.35449-.63281.02539-.05078c.0498-.15137.10059-.27832.20215-.4043l.20215-.27832.17676-.25293.17773-.37988c.05078-.10059.10059-.17676.17676-.27832l.10156-.10059.22754-.58203.17676-.27832.17773-.37988c.0498-.12598.12598-.22754.20215-.30371l.10059-.10059.30371-.53125.10156-.22754c.05078-.12695.12598-.22852.27832-.3291.20215-.15234.42969-.17773.60742-.17773l.55664.07617.22754-.10059.53125-.02539c.07617,0,.15137-.02539.25293,0l.50586.0752.30371-.0498.55664.02441c.15137-.0752.3291-.10059.55664-.0752l.27832.02539c.15137-.02539.30371.02539.48047.10059h.02539l.05078.25293-.15234.35449c0,.02539-.02539,0-.02539.02539l-.25293.45508-.15137.30371-.37988.53125-.10059.27832-.3291.60742-.15234.25293-.17676.4043c-.05078.12695-.10156.20312-.17676.27832l-.10156.12695-.22754.50586-.10156.20215c-.05078.07617-.10059.17773-.15137.25293l-.27832.37988-.10156.20215-.4043.53125-.15234.27832-.4043.50586-.15234.20312-.30273.63184v.07617c-.02539.12598-.10156.27832-.17773.4043l-.22754.37988c-.02539.12695-.10156.22754-.17676.35449l-.17773.22754c-.02539.05078-.0752.12598-.10059.15137l-.12695.10156-.35449.55664-.17676.37891-.3291.53125-.10059.25391-.20312.50586-.02441.32812v.68359l-.05078.27832.05078.45508c0,.05078.02441.15234.02441.20215l-.02441.20312.02441.55664v.27832l.02539.53125.02539.0498c.05078.15234.02539.35449,0,.50684l-.05078.4043-.02441.58203-.02539.35449.02539.42969c0,.15137-.02539.25293-.05078.37988l-.02539.10059c-.12695.15234-.25293.25293-.40527.3291-.15137.07617-.32812.05078-.48047.05078l-.3291-.02539-.70801.07617c-.10156,0-.22754.02539-.3291,0l-.20215-.05078h-.6582l-.63184-.07617h-.02539c-.10156,0-.37988-.20215-.53125-.4043-.15234-.17773-.12695-.35449-.10156-.58203v-.50586l-.05078-.53125-.0752-.27832v-.40527c0-.07617-.02539-.20215,0-.27832l.0498-.20215-.02441-.70801.0498-.25391v-.65723l-.0498-.6582-.05078-.32812-.05078-.73438-.07617-.65723-.12598-.30371-.40527-.53125-.12598-.22754-.22852-.40527-.0752-.12598c-.07617-.10156-.15234-.22852-.17773-.35449v-.05078l-.30273-.45508-.12695-.27832-.22754-.3291c-.10156-.12598-.17773-.27832-.20215-.42969l-.35449-.45605-.10156-.10059c-.0752-.07617-.12598-.17773-.17676-.30371l-.15137-.35449-.10156-.27832-.20215-.30371c-.07617-.10059-.15234-.22754-.17773-.35352l-.02539-.07617-.32812-.45508-.20312-.3291-.0752-.07617c-.05078-.07617-.12695-.15137-.15234-.22754l-.20215-.42969-.12695-.25391-.27832-.4043-.12598-.25293-.30371-.37988c-.05078-.05078-.10156-.12598-.12695-.20215l-.10059-.22754-.25293-.40527c-.05078-.0752-.07617-.12598-.10156-.22754l-.07617-.20215-.25293-.30371c-.10059-.12598-.15137-.22754-.20215-.4043l-.02539-.05078.07617-.15234c.05078-.10059.17676-.20215.37988-.27832Z"/>
    </g>
  </g>
</svg>